<svg id="_0562_online_report" xmlns="http://www.w3.org/2000/svg" xmlns:xlink="http://www.w3.org/1999/xlink" viewBox="0 0 500 500" data-imageid="financial-statement-10" imageName="Financial Statement" class="illustrations_image" style="width: 166px;"><defs><style>.cls-1_financial-statement-10,.cls-2_financial-statement-10,.cls-3_financial-statement-10,.cls-4_financial-statement-10,.cls-5_financial-statement-10,.cls-6_financial-statement-10,.cls-7_financial-statement-10,.cls-8_financial-statement-10,.cls-9_financial-statement-10,.cls-10_financial-statement-10,.cls-11_financial-statement-10,.cls-12_financial-statement-10,.cls-13_financial-statement-10,.cls-14_financial-statement-10,.cls-15_financial-statement-10,.cls-16_financial-statement-10,.cls-17_financial-statement-10,.cls-18_financial-statement-10,.cls-19_financial-statement-10,.cls-20_financial-statement-10,.cls-21_financial-statement-10,.cls-22_financial-statement-10,.cls-23_financial-statement-10,.cls-24_financial-statement-10,.cls-25_financial-statement-10,.cls-26_financial-statement-10,.cls-27_financial-statement-10,.cls-28_financial-statement-10,.cls-29_financial-statement-10,.cls-30_financial-statement-10,.cls-31_financial-statement-10,.cls-32_financial-statement-10,.cls-33_financial-statement-10,.cls-34_financial-statement-10,.cls-35_financial-statement-10,.cls-36_financial-statement-10,.cls-37_financial-statement-10,.cls-38_financial-statement-10,.cls-39_financial-statement-10,.cls-40_financial-statement-10,.cls-41_financial-statement-10,.cls-42_financial-statement-10,.cls-43_financial-statement-10,.cls-44_financial-statement-10,.cls-45_financial-statement-10,.cls-46_financial-statement-10,.cls-47_financial-statement-10{stroke-width:0px;}.cls-1_financial-statement-10,.cls-48_financial-statement-10{fill:none;}.cls-2_financial-statement-10{fill:url(#linear-gradient);}.cls-3_financial-statement-10{opacity:.18;}.cls-3_financial-statement-10,.cls-11_financial-statement-10{isolation:isolate;}.cls-3_financial-statement-10,.cls-32_financial-statement-10,.cls-47_financial-statement-10{fill:#68e1fd;}.cls-4_financial-statement-10{fill:url(#linear-gradient-11-financial-statement-10);}.cls-5_financial-statement-10{fill:url(#linear-gradient-13-financial-statement-10);}.cls-6_financial-statement-10{fill:url(#linear-gradient-10-financial-statement-10);}.cls-7_financial-statement-10{fill:url(#linear-gradient-17-financial-statement-10);}.cls-8_financial-statement-10{fill:url(#linear-gradient-16-financial-statement-10);}.cls-9_financial-statement-10{fill:url(#linear-gradient-15-financial-statement-10);}.cls-10_financial-statement-10{fill:url(#linear-gradient-14-financial-statement-10);}.cls-48_financial-statement-10{stroke:#473f47;stroke-linecap:round;stroke-linejoin:round;stroke-width:2.62px;}.cls-11_financial-statement-10{fill:url(#linear-gradient-12-financial-statement-10);opacity:.45;}.cls-12_financial-statement-10{fill:#231f20;opacity:.14;}.cls-13_financial-statement-10{fill:url(#linear-gradient-28-financial-statement-10);}.cls-13_financial-statement-10,.cls-14_financial-statement-10,.cls-15_financial-statement-10,.cls-16_financial-statement-10,.cls-17_financial-statement-10,.cls-18_financial-statement-10,.cls-19_financial-statement-10,.cls-20_financial-statement-10,.cls-21_financial-statement-10,.cls-22_financial-statement-10,.cls-23_financial-statement-10,.cls-24_financial-statement-10,.cls-25_financial-statement-10,.cls-26_financial-statement-10,.cls-27_financial-statement-10,.cls-28_financial-statement-10,.cls-29_financial-statement-10,.cls-30_financial-statement-10,.cls-31_financial-statement-10,.cls-32_financial-statement-10,.cls-33_financial-statement-10,.cls-34_financial-statement-10{fill-rule:evenodd;}.cls-14_financial-statement-10{fill:url(#linear-gradient-29-financial-statement-10);}.cls-15_financial-statement-10{fill:url(#linear-gradient-32-financial-statement-10);}.cls-16_financial-statement-10{fill:url(#linear-gradient-25-financial-statement-10);}.cls-17_financial-statement-10{fill:url(#linear-gradient-30-financial-statement-10);}.cls-18_financial-statement-10{fill:url(#linear-gradient-33-financial-statement-10);}.cls-19_financial-statement-10{fill:url(#linear-gradient-36-financial-statement-10);}.cls-20_financial-statement-10{fill:url(#linear-gradient-31-financial-statement-10);}.cls-21_financial-statement-10{fill:url(#linear-gradient-34-financial-statement-10);}.cls-22_financial-statement-10{fill:url(#linear-gradient-35-financial-statement-10);}.cls-23_financial-statement-10{fill:url(#linear-gradient-19-financial-statement-10);}.cls-24_financial-statement-10{fill:url(#linear-gradient-23-financial-statement-10);}.cls-25_financial-statement-10{fill:url(#linear-gradient-22-financial-statement-10);}.cls-26_financial-statement-10{fill:url(#linear-gradient-18-financial-statement-10);}.cls-27_financial-statement-10{fill:url(#linear-gradient-20-financial-statement-10);}.cls-28_financial-statement-10{fill:url(#linear-gradient-21-financial-statement-10);}.cls-29_financial-statement-10{fill:url(#linear-gradient-24-financial-statement-10);}.cls-30_financial-statement-10{fill:url(#linear-gradient-27-financial-statement-10);}.cls-31_financial-statement-10{fill:url(#linear-gradient-26-financial-statement-10);}.cls-33_financial-statement-10,.cls-43_financial-statement-10{fill:#473f47;}.cls-34_financial-statement-10,.cls-45_financial-statement-10{fill:#fff;}.cls-35_financial-statement-10{fill:url(#linear-gradient-4-financial-statement-10);}.cls-36_financial-statement-10{fill:url(#linear-gradient-2-financial-statement-10);}.cls-37_financial-statement-10{fill:url(#linear-gradient-3-financial-statement-10);}.cls-38_financial-statement-10{fill:url(#linear-gradient-8-financial-statement-10);}.cls-39_financial-statement-10{fill:url(#linear-gradient-9-financial-statement-10);}.cls-40_financial-statement-10{fill:url(#linear-gradient-7-financial-statement-10);}.cls-41_financial-statement-10{fill:url(#linear-gradient-5-financial-statement-10);}.cls-42_financial-statement-10{fill:url(#linear-gradient-6-financial-statement-10);}.cls-44_financial-statement-10{fill:#c14834;}.cls-46_financial-statement-10{fill:#ffb4a3;}</style><linearGradient id="linear-gradient-financial-statement-10" x1="1680.86" y1="-644.08" x2="1684.22" y2="-641.55" gradientTransform="translate(1957.94 1028.9) rotate(-180) scale(1 -1)" gradientUnits="userSpaceOnUse"><stop offset="0" stop-color="#231f20"/><stop offset=".08" stop-color="#231f20" stop-opacity=".69"/><stop offset=".21" stop-color="#231f20" stop-opacity=".32"/><stop offset="1" stop-color="#231f20" stop-opacity="0"/></linearGradient><linearGradient id="linear-gradient-2-financial-statement-10" x1="1359.75" y1="-954.34" x2="2215.99" y2="-313.96" xlink:href="#linear-gradient-financial-statement-10"/><linearGradient id="linear-gradient-3-financial-statement-10" x1="1647.74" y1="-768.35" x2="1736.61" y2="-486.1" xlink:href="#linear-gradient-financial-statement-10"/><linearGradient id="linear-gradient-4-financial-statement-10" x1="1698.14" y1="-821.94" x2="1643.8" y2="-454.62" gradientTransform="translate(1957.94 1028.9) rotate(-180) scale(1 -1)" gradientUnits="userSpaceOnUse"><stop offset="0" stop-color="#231f20" stop-opacity="0"/><stop offset="1" stop-color="#231f20"/></linearGradient><linearGradient id="linear-gradient-5-financial-statement-10" x1="1644.25" y1="-770.58" x2="1602.38" y2="-487.54" gradientTransform="translate(1957.94 1028.9) rotate(-180) scale(1 -1)" xlink:href="#linear-gradient-financial-statement-10"/><linearGradient id="linear-gradient-6-financial-statement-10" x1="1615.16" y1="-686.53" x2="1592.88" y2="-629.24" xlink:href="#linear-gradient-financial-statement-10"/><linearGradient id="linear-gradient-7-financial-statement-10" x1="202.25" y1="74.34" x2="278.48" y2="425.22" gradientUnits="userSpaceOnUse"><stop offset="0" stop-color="#231f20" stop-opacity="0"/><stop offset="1" stop-color="#231f20"/></linearGradient><linearGradient id="linear-gradient-8-financial-statement-10" x1="-554.69" y1="-877.86" x2="-708.05" y2="-614" gradientTransform="translate(822.52 1028.9)" xlink:href="#linear-gradient-financial-statement-10"/><linearGradient id="linear-gradient-9-financial-statement-10" x1="-600.35" y1="-858.96" x2="-552.25" y2="-701.7" gradientTransform="translate(822.52 1028.9)" xlink:href="#linear-gradient-financial-statement-10"/><linearGradient id="linear-gradient-10-financial-statement-10" x1="-583.66" y1="-815.76" x2="-367.8" y2="-598.52" gradientTransform="translate(822.52 1028.9)" gradientUnits="userSpaceOnUse"><stop offset="0" stop-color="#fff" stop-opacity="0"/><stop offset="1" stop-color="#fff"/></linearGradient><linearGradient id="linear-gradient-11-financial-statement-10" x1="-554.37" y1="-682.21" x2="-560.65" y2="-810.07" gradientTransform="translate(822.52 1028.9)" gradientUnits="userSpaceOnUse"><stop offset="0" stop-color="#231f20"/><stop offset=".13" stop-color="#231f20" stop-opacity=".69"/><stop offset=".25" stop-color="#231f20" stop-opacity=".32"/><stop offset="1" stop-color="#231f20" stop-opacity="0"/></linearGradient><linearGradient id="linear-gradient-12-financial-statement-10" x1="-466.88" y1="-673.57" x2="-487.77" y2="-724.83" xlink:href="#linear-gradient-11-financial-statement-10"/><linearGradient id="linear-gradient-13-financial-statement-10" x1="-692.77" y1="-720.02" x2="-688.72" y2="-453.69" gradientTransform="translate(822.52 1028.9)" xlink:href="#linear-gradient-financial-statement-10"/><linearGradient id="linear-gradient-14-financial-statement-10" x1="103.94" y1="248.89" x2="110.22" y2="248.89" gradientTransform="matrix(1,0,0,1,0,0)" xlink:href="#linear-gradient-financial-statement-10"/><linearGradient id="linear-gradient-15-financial-statement-10" x1="-719.7" y1="-696.22" x2="-690.64" y2="-696.22" gradientTransform="translate(822.52 1028.9)" xlink:href="#linear-gradient-financial-statement-10"/><linearGradient id="linear-gradient-16-financial-statement-10" x1="-731.78" y1="-695.95" x2="-720.75" y2="-695.95" gradientTransform="translate(822.52 1028.9)" xlink:href="#linear-gradient-financial-statement-10"/><linearGradient id="linear-gradient-17-financial-statement-10" x1="-735.32" y1="-773.5" x2="-706.55" y2="-693.08" gradientTransform="translate(822.52 1028.9)" xlink:href="#linear-gradient-financial-statement-10"/><linearGradient id="linear-gradient-18-financial-statement-10" x1="-654.26" y1="-652.01" x2="-634.58" y2="-738.32" xlink:href="#linear-gradient-10-financial-statement-10"/><linearGradient id="linear-gradient-19-financial-statement-10" x1="-656.99" y1="-652.62" x2="-637.31" y2="-738.94" xlink:href="#linear-gradient-10-financial-statement-10"/><linearGradient id="linear-gradient-20-financial-statement-10" x1="-652.46" y1="-651.59" x2="-632.8" y2="-737.91" xlink:href="#linear-gradient-10-financial-statement-10"/><linearGradient id="linear-gradient-21-financial-statement-10" x1="-655.32" y1="-652.24" x2="-635.64" y2="-738.56" xlink:href="#linear-gradient-10-financial-statement-10"/><linearGradient id="linear-gradient-22-financial-statement-10" x1="-655.91" y1="-652.37" x2="-636.24" y2="-738.7" xlink:href="#linear-gradient-10-financial-statement-10"/><linearGradient id="linear-gradient-23-financial-statement-10" x1="-670.15" y1="-655.62" x2="-650.47" y2="-741.94" xlink:href="#linear-gradient-10-financial-statement-10"/><linearGradient id="linear-gradient-24-financial-statement-10" x1="-669.44" y1="-655.45" x2="-649.78" y2="-741.78" xlink:href="#linear-gradient-10-financial-statement-10"/><linearGradient id="linear-gradient-25-financial-statement-10" x1="-701.75" y1="-662.83" x2="-682.09" y2="-749.14" xlink:href="#linear-gradient-10-financial-statement-10"/><linearGradient id="linear-gradient-26-financial-statement-10" x1="-700.29" y1="-662.5" x2="-680.61" y2="-748.81" xlink:href="#linear-gradient-10-financial-statement-10"/><linearGradient id="linear-gradient-27-financial-statement-10" x1="-688.95" y1="-659.91" x2="-669.27" y2="-746.22" xlink:href="#linear-gradient-10-financial-statement-10"/><linearGradient id="linear-gradient-28-financial-statement-10" x1="-711.89" y1="-665.13" x2="-692.21" y2="-751.46" xlink:href="#linear-gradient-10-financial-statement-10"/><linearGradient id="linear-gradient-29-financial-statement-10" x1="-694.13" y1="-661.09" x2="-674.45" y2="-747.41" xlink:href="#linear-gradient-10-financial-statement-10"/><linearGradient id="linear-gradient-30-financial-statement-10" x1="-696.85" y1="-661.7" x2="-677.18" y2="-748.03" xlink:href="#linear-gradient-10-financial-statement-10"/><linearGradient id="linear-gradient-31-financial-statement-10" x1="-692.33" y1="-660.68" x2="-672.66" y2="-747" xlink:href="#linear-gradient-10-financial-statement-10"/><linearGradient id="linear-gradient-32-financial-statement-10" x1="-695.2" y1="-661.32" x2="-675.52" y2="-747.65" xlink:href="#linear-gradient-10-financial-statement-10"/><linearGradient id="linear-gradient-33-financial-statement-10" x1="-671.79" y1="-655.99" x2="-652.12" y2="-742.32" xlink:href="#linear-gradient-10-financial-statement-10"/><linearGradient id="linear-gradient-34-financial-statement-10" x1="-674.55" y1="-656.62" x2="-654.89" y2="-742.95" xlink:href="#linear-gradient-10-financial-statement-10"/><linearGradient id="linear-gradient-35-financial-statement-10" x1="-670.02" y1="-655.6" x2="-650.34" y2="-741.91" xlink:href="#linear-gradient-10-financial-statement-10"/><linearGradient id="linear-gradient-36-financial-statement-10" x1="-673.54" y1="-656.4" x2="-653.86" y2="-742.71" xlink:href="#linear-gradient-10-financial-statement-10"/></defs><g id="background_financial-statement-10"><path class="cls-3_financial-statement-10 targetColor" d="M231.53,64.35c-48.49,2.61-95.52,17.49-136.69,43.24-19.22,12.18-37.42,27.02-49.35,46.42-11.94,19.4-16.88,43.98-9.17,65.39,4.6,12.72,13.25,23.52,19.42,35.55,6.17,12.03,9.72,26.83,3.58,38.87-7.05,13.94-24.05,19.06-36.1,29.1-19.12,15.91-16.94,30.27-10.48,51.02,5.59,18.13,14.58,33.83,29.16,46.22,28.48,24.21,67.92,31.69,103.73,37.64,51.88,8.62,105.08,10.87,157.3,3.93,25.56-3.38,49.42-10.48,74.2-16.73,24.21-6.07,48.61-13.64,69.26-28.1,50.88-35.64,66.89-103.8,37.21-158.37-20.65-38-59.82-62.5-83.63-98.54-13.99-21.17-22.42-45.95-38.72-65.35-14.98-17.58-54.49-24.5-75.91-27.83-10.74-1.64-21.58-2.58-32.44-2.79-7.11-.16-14.24-.07-21.36.34Z" style="fill: rgb(122, 181, 172);"/></g><g id="laptop_financial-statement-10"><path class="cls-2_financial-statement-10" d="M276.18,385.59l-.75.1c-.55.43.98.55.75-.1Z"/><path class="cls-36_financial-statement-10" d="M109.5,298.59c5.59,2.24,11.48,4.42,15.11,6.98l85.96,60.36c6.58,4.77,13.44,9.14,20.54,13.1,5.79,3.13,9.09,9.17,16.12,10.69,3.47.6,7.03.54,10.48-.18,5.65-.92,11.21-2.33,16.61-4.22.67-.22,1.6-.37,1.9.28h0c50.06-6.84,97.94-25.01,147.57-34.47,1.48-.25,2.49-1.65,2.24-3.13-.16-.96-.82-1.77-1.73-2.11-4.16-1.47-8.45-2.52-12.81-3.14-7.86-1.47-15.81-2.9-23.75-4.19-16.01-2.76-32.16-4.56-48.38-5.37-26.94-1.09-54.11,1.74-80.75-2.44-25.31-3.93-49.18-14.08-72.74-24.19-5.67-2.44-11.46-4.97-15.92-9.17-3.49-3.34-6.29-7.78-10.74-9.98-4.45-2.2-10.19-1.89-15.2-1.65-9.86.67-19.66,1.98-29.35,3.93-1.83,2.88-3.54,5.88-5.15,8.91Z"/><path class="cls-47_financial-statement-10 targetColor" d="M421.5,334.18l-112.44-48.91c-2.43-1.22-5.17-1.68-7.86-1.31l-139.11,11.88c-2.62.38-2.19,11.79,0,13.65l82.13,69.91c5.01,4.41,11.84,6.13,18.34,4.61l157.97-38.39c2-.55,2.87-10.48.97-11.45Z" style="fill: rgb(122, 181, 172);"/><path class="cls-37_financial-statement-10" d="M421.5,334.18l-112.44-48.91c-2.43-1.22-5.17-1.68-7.86-1.31l-139.11,11.88c-2.62.38-2.19,11.79,0,13.65l82.13,69.91c5.01,4.41,11.84,6.13,18.34,4.61l157.97-38.39c2-.55,2.87-10.48.97-11.45Z"/><path class="cls-47_financial-statement-10 targetColor" d="M162.09,301.32l82.12,69.91c5.01,4.42,11.84,6.13,18.34,4.6l157.9-38.38c1.33-.57,1.95-2.1,1.39-3.43-.21-.48-.55-.89-1-1.18l-43.3-24.43-11.36-6.38-34.58-19.51c-2.43-1.22-5.17-1.68-7.86-1.31l-160.23,13.95c-2.67.38-3.55,4.32-1.43,6.16Z" style="fill: rgb(122, 181, 172);"/><polygon class="cls-35_financial-statement-10" points="323.82 285.07 177.29 306.76 222.4 343.36 372.76 312.94 323.82 285.07"/><polygon class="cls-41_financial-statement-10" points="339.15 322.03 278.76 334.23 309.98 359.7 372.76 345.62 339.15 322.03"/><path class="cls-42_financial-statement-10" d="M369.33,350.03c-1.24,2.52-3.51,4.37-6.22,5.1-4.43,1.06-30.29,7.68-30.29,7.68,0,0-4.21.51-6.55-2.31l43.07-10.47Z"/><path class="cls-47_financial-statement-10 targetColor" d="M328.4,281.21l-165.36,23.58c-2.52.35-4.87-1.32-5.37-3.81l-23.58-119.12c-1.02-4.96,2.17-9.81,7.13-10.84.37-.08.74-.13,1.11-.16l163.3-14.41c5.01-.47,9.47,3.18,9.98,8.19l12.79,116.57Z" style="fill: rgb(122, 181, 172);"/><path class="cls-40_financial-statement-10" d="M328.4,281.21l-164.93,23.47c-2.77.4-5.36-1.44-5.9-4.18l-23.5-118.64c-1.02-4.96,2.17-9.81,7.13-10.84.37-.08.74-.13,1.11-.16l163.31-14.41c5.01-.47,9.47,3.18,9.98,8.19l12.79,116.57Z"/><polygon class="cls-45_financial-statement-10" points="166.02 297.89 142.54 177.69 309.51 166.08 322.76 279.87 166.02 297.89"/><path class="cls-1_financial-statement-10" d="M184.16,218.62c3.67,4.21,5.61,9.62,7.07,15,4.55,16.51,5.53,33.82,5.16,50.95-.13,6.09-.41,12.32,1.31,18.15,2.64,8.61,9.34,15.37,17.92,18.09,4.91,1.52,10.32,1.66,14.74,4.3,8.74,5.24,9.84,17.52,16.46,25.26,8.9,10.4,26.69,11.39,32.75,23.58"/></g><g id="world_financial-statement-10"><path class="cls-47_financial-statement-10 targetColor" d="M398.98,249.84c0,24.2-19.62,43.81-43.81,43.81s-43.81-19.62-43.81-43.81h0c-.02-1.12.02-2.23.13-3.34,1.87-24.12,22.94-42.17,47.07-40.3,22.8,1.77,40.4,20.77,40.43,43.64Z" style="fill: rgb(122, 181, 172);"/><path class="cls-12_financial-statement-10" d="M336.75,269.74c-1.44,6.33.33,13.1-.97,19.39-10.12-5.01-17.92-13.71-21.8-24.32-.21-2.18-.15-4.38.17-6.55.49-2.3.52-4.68.07-7-.63-1.74-1.55-3.36-2.73-4.78.99-12.98,7.72-24.84,18.34-32.36.05.29.05.6,0,.89l-1.87,8.35c.37,2.47.37,4.98,0,7.45-.41,2.49-1.9,4.68-4.06,5.99-.81.33-1.6.72-2.36,1.17-.72.6-1.33,1.32-1.78,2.14-1.2,1.69-2.08,3.58-2.62,5.58-.54,2.04-.02,4.21,1.39,5.78l12.21-2.37c1.31-.25,2.83-.42,3.71.55s.39,2.97.63,4.52c.29,1.98,2.04,3.39,2.86,5.24,1.35,3.24-.37,6.88-1.18,10.34Z"/><path class="cls-12_financial-statement-10" d="M398.98,249.84c.02,13.43-6.14,26.12-16.69,34.42-.6-.4-1.12-.92-1.52-1.52-1.38-2.04-.84-4.82,1.21-6.2h0c-.73.38-3.63-.56-4.49-.71l-4.51-.69c-2.16-.33-5.94-.2-7.19-2.37-.14-.3-.31-.59-.51-.85-.26-.28-.58-.5-.93-.64-1.31-.67-2.95-1.41-3.28-2.9-.22-1.07.31-2.31-.24-3.28-.18-.29-.45-.52-.62-.83-.39-.91-.28-1.95.3-2.75,1.9-3.33,5.84-4.93,9.62-5.57,3.77-.64,7.68-.54,11.36-1.61,2.25-.88,4.57-1.59,6.93-2.12,1.31-.18,2.96-.31,3.45-1.56.28-.69,0-1.52.29-2.23.1-.3.3-.58.42-.88.3-.95-.22-1.96-1.17-2.27-.11-.04-.22-.06-.34-.08.3-.83.55-1.87-.09-2.46-.46-.34-1.06-.43-1.6-.25-1.57.41-2.71,1.73-4.04,2.62-4.38,3.11-10.36,2-14.02-1.65-.6-.52-1.02-1.21-1.22-1.98-.1-1.34.64-2.59,1.86-3.14,1.19-.51,2.49-.77,3.79-.75l-1.44-9.5c-7.28,1.95-10.25-4.98-11.28-10.74s3.05-7.86,8.33-8.21c16.66,6.64,27.6,22.76,27.62,40.69Z"/></g><g id="report_financial-statement-10"><path class="cls-38_financial-statement-10" d="M189.2,253.16c1.31,11.79,1.39,23.73,3.5,35.37.48,2.62,1.31,5.61,3.64,6.93,1.86.81,3.94,1,5.92.52,12.46-1.71,24.58-5.32,35.94-10.72-3.3-15.63-8.16-30.89-14.53-45.54-1.66-3.8-3.49-7.65-6.45-10.56-4.49-4.4-10.72-5.79-16.69-6.97-3.11-.62-6.26-1.04-9.34-1.82-1.9-.48-7.3-3.66-8.87-3.35-5.24.98,0,9.26,1.31,12.47,2.96,7.59,4.84,15.55,5.57,23.66Z"/><polygon class="cls-47_financial-statement-10 targetColor" points="299.04 213.33 174.17 225.16 170.98 210.56 295.87 198.72 299.04 213.33" style="fill: rgb(122, 181, 172);"/><polygon class="cls-39_financial-statement-10" points="299.04 213.33 174.17 225.16 170.98 210.56 295.87 198.72 299.04 213.33"/><path class="cls-47_financial-statement-10 targetColor" d="M285.57,204.77c9.64-1.04,18.98,5.11,24.15,13.31,5.16,8.2,6.55,12.17,7.21,21.84.21,3.14.47,6.63,2.79,8.77,3.87,3.55,9.9.79,14.96-.6,11.99-3.3,25.92,3.72,30.4,15.33,4.38,11.33-1.89,28.16,8.07,35.13,8.87,6.18,32.75-8.74,40.24-22.17,0,0,2.17,29.49-21.11,44.23-34.55,21.88-99.31,30.38-106.12,29.65-11.33-1.24-23.7-5.18-29.13-15.2s-1.91-22.63-1.91-34.2c0-6.66-3-14.99-9.66-15.13-4.98-.12-8.58,4.62-10.9,9.03-2.32,4.4-4.74,9.47-9.47,11.04-4.22,1.4-9.01-.68-11.91-4.05s-4.22-7.86-5.11-12.17c-3.08-15.12-1.68-30.83-4.15-46.07-.94-5.79-2.62-11.73-6.55-16.06s-13.17-10.76-20.22-10.48l108.43-12.2Z" style="fill: rgb(122, 181, 172);"/><path class="cls-6_financial-statement-10" d="M285.57,204.77c9.64-1.04,18.98,5.11,24.15,13.31,5.16,8.2,6.55,12.17,7.21,21.84.21,3.14.47,6.63,2.79,8.77,3.87,3.55,9.9.79,14.96-.6,11.99-3.3,25.92,3.72,30.4,15.33,3.64,9.43,1.47,20.02,4.99,29.47,2.04,5.5,5.33,6.16,11.06,5.75,5.58-.53,10.92-2.53,15.49-5.79,6.85-4.73,12.12-11.37,17.28-17.91-1.22,8.06-1.01,16.43-3.75,24.09-4.52,12.68-16.25,21.28-27.95,27.95-19.9,11.32-41.48,19.39-63.92,23.9-10.48,2.12-21.46.48-32.07-.67-11.33-1.31-23.7-5.24-29.13-15.2-5.42-9.96-1.9-22.63-1.86-34.2,0-6.66-3-14.99-9.66-15.13-4.98-.12-8.58,4.62-10.9,9.03s-4.74,9.47-9.47,11.04c-4.22,1.4-9.01-.68-11.91-4.05-2.9-3.37-4.22-7.86-5.11-12.17-3.08-15.12-1.68-30.83-4.15-46.07-.94-5.79-2.62-11.79-6.55-16.06-3.93-4.27-13.17-10.76-20.22-10.48l108.33-12.15Z"/><path class="cls-4_financial-statement-10" d="M326.28,250.3l-81.43,30.79s-4.49,1.09-10.19,13.67c-5.7,12.58-26.02,17.03-27.06-23.11s-3.16-37.6-8.25-45.93l117.34,11.61s-.77,15.93,9.59,12.98Z"/><line class="cls-48_financial-statement-10" x1="225.02" y1="223.56" x2="286.54" y2="217"/><line class="cls-48_financial-statement-10" x1="232.05" y1="243.26" x2="293.58" y2="236.7"/><line class="cls-48_financial-statement-10" x1="235.01" y1="256.41" x2="296.55" y2="249.84"/><line class="cls-48_financial-statement-10" x1="277.71" y1="228.58" x2="289.66" y2="227.31"/><line class="cls-48_financial-statement-10" x1="253.8" y1="231.13" x2="269.99" y2="229.4"/><line class="cls-48_financial-statement-10" x1="228.12" y1="233.87" x2="242.59" y2="232.32"/><line class="cls-48_financial-statement-10" x1="281.24" y1="282.61" x2="341.48" y2="260.24"/><line class="cls-48_financial-statement-10" x1="286.12" y1="302.2" x2="346.36" y2="279.83"/><line class="cls-48_financial-statement-10" x1="287.71" y1="315.69" x2="347.96" y2="293.33"/><line class="cls-48_financial-statement-10" x1="331.8" y1="274.97" x2="343.48" y2="270.63"/><line class="cls-48_financial-statement-10" x1="308.38" y1="283.66" x2="324.24" y2="277.77"/><line class="cls-48_financial-statement-10" x1="283.24" y1="293" x2="297.4" y2="287.73"/><path class="cls-11_financial-statement-10" d="M407.72,283.83s-56.34,50.28-94.33,44.93c0,0-31.22,35.26-43.46,14.62-12.24-20.64,8.77-33.92,8.77-33.92l91.31-16.57s6.05,20.37,37.72-9.05Z"/></g><g id="character_financial-statement-10"><path class="cls-5_financial-statement-10" d="M89.77,360.94c4.69,3.38,9.39,6.76,14.33,9.76,8.95,5.44,18.59,9.62,28.2,13.77,2.8,1.21,5.62,2.42,8.44,3.59,1.81.88,3.76,1.39,5.76,1.52,4.39,0,7.86-3.43,11.79-5.5,3.42-1.82,7.3-2.62,10.76-4.32,1.31-.63,2.62-1.68,2.5-3.08s-1.31-2.07-2.45-2.62c-9.97-5.24-20.83-8.71-31.61-12.08-1.71-.67-3.54-.99-5.38-.94-3.45.31-6.13,3.05-9.39,4.21-2.18.66-4.47.9-6.73.68-9.01-.48-17.26-4.89-26.2-4.98Z"/><path class="cls-46_financial-statement-10" d="M131.21,367.05c.12,1.52,2.28,1.55,4.73,1.31,2.45-.24,1.79.34,5.24.38s4.62-1.09,4.8-1.57-1.51-.8-3.28-1.23l-.68-.17c-1.99-.51-3.31-2-5.02-3.3-1.7-1.3-3.69-5.71-3.69-5.71l-4.7-.21s1.98,4.01,2.73,5.74c.3,1.05.3,2.17,0,3.22-.1.51-.14,1.03-.12,1.55Z"/><path class="cls-43_financial-statement-10" d="M135.88,368.31c2.45-.29,1.79.34,5.24.38,3.45.04,4.62-1.09,4.8-1.57s-1.51-.8-3.28-1.23h0c-1.57.75-3.31,1.06-5.04.9-2.31-.24-4.65-1.19-6.24-1.31-.13.52-.19,1.06-.17,1.6.13,1.49,2.29,1.52,4.69,1.23Z"/><path class="cls-46_financial-statement-10" d="M99.96,365.5l.51.26c2.11.93,4.3,1.66,6.55,2.17.74.21,1.51.27,2.27.17.47-.09.92-.29,1.31-.58.18-.14.37-.37.26-.56-.03-.07-.09-.14-.16-.18-1-.8-2.24-1.05-3.29-1.77s-1.89-1.55-2.86-2.28c-1.62-1.24,0-8.57,0-8.57l-5.15-.5s.24,6.17.24,8.96c0,.84-.71,1.97,0,2.62.09.1.2.18.31.25Z"/><path class="cls-43_financial-statement-10" d="M103.56,368.57c.94.42,1.9.78,2.88,1.07.95.33,1.95.51,2.96.52,1.02.03,2.02-.3,2.82-.93.22-.15.36-.38.39-.64-.02-.23-.1-.44-.25-.62-.48-.67-1.1-1.23-1.82-1.62-.38-.18-.6,0-.97.2-.42.17-.86.3-1.31.39-3.13.64-6.37-.31-8.65-2.54,0,0-.09-.12-.16-.13s-.26.13-.29.29c-.12.5-.02,1.02.26,1.44.24.33.55.62.9.84,1.02.68,2.1,1.26,3.22,1.73Z"/><path class="cls-44_financial-statement-10" d="M114.03,240.81c.12-.81.16-1.63.13-2.45-.01-.85-.23-1.68-.63-2.42-.28-.5-1.04-.96-1.23-1.41-1.47-2.91-4.12-5.05-7.27-5.87-2.29-.31-4.63,0-6.76.9-.56.15-1.09.4-1.55.76-.39.39-.69.87-.88,1.39-.51,1.1-.95,2.23-1.31,3.38-.98-1.48-2.34-2.66-3.93-3.45-1.9-.63-3.99-.22-5.52,1.07-1.48,1.31-2.38,3.16-2.49,5.14.06,1.26-.04,2.52-.29,3.76-.51,1.47-1.79,2.53-3.33,2.75,1.49,2.22,4.15,3.35,6.79,2.87-.46,1.04-.98,2.04-1.57,3.01,1.67.48,3.45.36,5.04-.34,1.02-.73,1.84-1.7,2.38-2.83l-1.09,2.37c1.89-1.78,1.41-5.24,3.38-6.9.56.28.77.97,1.17,1.45s1.31.66,1.52,0c.13,1.49.63,2.93,1.47,4.18,1.16,1.52,3.01,2.36,4.93,2.23.35,0,.8-.26.68-.58.85-.18,1.31-1.1,2.07-1.56.98-.62,2.25-.31,3.41-.51,1.4-.32,2.6-1.2,3.31-2.44.84-1.37,1.37-2.91,1.56-4.51Z"/><path class="cls-46_financial-statement-10" d="M110.52,254.64c-1.46.8-3.15,1.1-4.8.86-1.4-.59-2.54-1.68-3.2-3.05.83-.17,1.06-1.31,1.05-6.17l.37.08,6.28,1.23s-.14,1.98-.14,3.84c-.01,1.56.09,3.04.45,3.21Z"/><path class="cls-10_financial-statement-10" d="M110.22,247.59s-.14,1.98-.14,3.84c-3.51-.1-5.37-3.3-6.13-5.07l6.28,1.23Z"/><path class="cls-43_financial-statement-10" d="M135.73,359.19c.25.82-.21,1.68-1.02,1.94-.13.02-.25.02-.38,0l-2.45.12-2.62.08c-.65.03-1.27-.26-1.68-.77-5.49-6.94-9.66-14.83-12.3-23.28-.1-.34-.22-.69-.34-1.05-2.62-7.43-7.86-16.77-10.63-25.22-.45-1.31-.84-2.62-1.21-3.8-.1-.39-.22-.77-.33-1.14-1.58-5.48-2.64-11.09-3.16-16.77l20.12.16c3.43,23.64,8.78,46.96,15.98,69.74Z"/><path class="cls-45_financial-statement-10" d="M116.93,277.91c0,9.58,1.4,13.68,1.4,13.68-5.94,2.64-12.63,3.05-18.85,1.15l-8.48-1.94c.17-.39,1.69-6.84,1.86-7.19,2.16-4.65,3.8-6.68,4.06-8.11.44-2.65.52-5.35.25-8.02-.41-4.27-1.24-8.49-2.49-12.59,2.83-.76,5.6-1.71,8.31-2.84,1.23,1.1,2.83,1.69,4.48,1.66,2.04,0,2.7-.92,2.62-1.87,2.17,1.21,3.93,2.35,3.93,2.35,1.85,3.21,5.59,6.33,5.86,11.25.03,1.21-2.95,12.21-2.95,12.47Z"/><path class="cls-47_financial-statement-10 targetColor" d="M99.62,278.97c-.88,1.24-2.62,8.82-6.76,9.77,2.16-5.4,3.8-7.77,4.06-9.42.44-3.09.52-6.21.25-9.32,1.4-2.46,2.45-4.15,2.45-4.15.12-.39,2.23-6.96,2.91-1.09.34,4.91-.67,9.82-2.91,14.2Z" style="fill: rgb(122, 181, 172);"/><path class="cls-46_financial-statement-10" d="M111.38,249.36s-8.29.13-8.31-5.03-1.07-8.63,4.22-8.95c5.29-.31,6.34,1.66,6.76,3.39s-.45,10.42-2.67,10.59Z"/><path class="cls-44_financial-statement-10" d="M111.08,235.26s-2.28,6.07-5.76,6.96-4.99,0-4.99,0c1.72-1.51,2.86-3.57,3.22-5.83,0,0,5.82-4.02,7.53-1.13Z"/><path class="cls-44_financial-statement-10" d="M110.52,235.74c.89.7,1.61,1.6,2.11,2.62.42,1.31.6,4.02,1.39,3.93,0,0,1.72-4.11-.21-6.45s-3.29-.1-3.29-.1Z"/><polygon class="cls-46_financial-statement-10" points="127.76 281.61 133.99 292.55 131.97 293.86 123.52 284.81 127.76 281.61"/><path class="cls-47_financial-statement-10 targetColor" d="M111.23,253.27s4.89.88,6.77,3.41,7.68,20.96,8.86,22.71,2.08,3.18,2.08,3.18c-1.09,1.35-2.53,2.38-4.15,2.99-2.27.62-13.56-32.28-13.56-32.28Z" style="fill: rgb(122, 181, 172);"/><path class="cls-47_financial-statement-10 targetColor" d="M110.06,251.83s4.81,11.86,4.95,14.27.56,39.31.56,39.31c0,0-.29,1.69,2.96.98,1.45-.19,2.84-.66,4.1-1.4,0,0-3.11-22.74-2.27-30.65.84-7.9-6.55-20.81-6.55-20.81l-3.76-1.7Z" style="fill: rgb(122, 181, 172);"/><path class="cls-9_financial-statement-10" d="M131.88,361.35l-2.8.08c-.51.03-.99-.19-1.31-.59-5.56-6.99-9.78-14.95-12.45-23.47-.1-.34-.22-.69-.34-1.05-2.62-7.43-7.86-16.77-10.63-25.22-.45-1.31-.84-2.62-1.21-3.8-.1-.39-.22-.77-.33-1.14l2.96-2.24s8.9,14.41,11.65,27.96c2.4,11.73,11.98,25.9,14.45,29.47Z"/><path class="cls-43_financial-statement-10" d="M106.09,333.1c0,6.24-.25,20.14-1.01,26.92-.06.63-.59,1.1-1.22,1.1h-4.09c-.38,0-.71-.28-.79-.66-2.08-10.63-3.58-19.44-4.66-27.07-.92-6.39-1.73-11.79-2.36-16.57s-1.07-8.71-1.23-12.07v-3l17.39-1.69c-.28,11.49-2.06,29.2-2.03,33.03Z"/><path class="cls-8_financial-statement-10" d="M101.82,361.13h-1.9c-.46,0-.86-.33-.96-.79-2.07-10.57-3.55-19.35-4.64-26.94-.92-6.39-1.73-11.79-2.36-16.57-.63-4.78-1.07-8.71-1.23-12.07l6.38,3.76s-4.06,1.43-2.52,12.3c1.55,10.87,4.99,38.76,7.22,40.3Z"/><path class="cls-47_financial-statement-10 targetColor" d="M102.58,304.65s-1.22,4.43-5.46,3.87c-3.52-.67-6.96-1.71-10.26-3.11,0,0,1.81-5.73,4.06-13.25,2.73-9.09,6.11-20.82,7.69-28.22.38-1.66.67-3.35.86-5.04l3.51-6.83s5.24,11.79,5.53,14.73c.29,2.93-5.94,37.85-5.94,37.85Z" style="fill: rgb(122, 181, 172);"/><path class="cls-7_financial-statement-10" d="M102.4,273.02c-.2,4.8-1.31,14.12-11.4,19.1h-.08c2.73-9.09,6.11-20.82,7.69-28.22,1.9,2.8,3.89,6.47,3.79,9.12Z"/><path class="cls-47_financial-statement-10 targetColor" d="M102.99,252.07s-8.59.62-10.66,5.24-1.98,10.7-1.78,15.63c.12,2.99.2,6.09,1.6,8.8,1.89,3.14,4.2,6.01,6.88,8.52.4.49.92.86,1.51,1.09.66.13,1.35.04,1.95-.25,1.41-.56,2.69-1.41,3.75-2.5-.43-.38-.6-1.31-.93-1.87-.49-.8-.93-1.62-1.31-2.48-.79-1.72-1.66-3.39-2.62-5.02-.98-1.31-1.86-2.7-2.62-4.15-.67-1.51-.64-3.24.09-4.72.56-1.83,1-3.69,1.31-5.58.94-4.23,1.89-8.48,2.84-12.71Z" style="fill: rgb(122, 181, 172);"/><path class="cls-32_financial-statement-10 targetColor" d="M149.75,351.58c-1.81-.81-3.28.22-3.28,2.32.09,2.2,1.34,4.19,3.28,5.24,1.81.81,3.26-.22,3.26-2.32-.09-2.2-1.33-4.19-3.26-5.24Z" style="fill: rgb(122, 181, 172);"/><path class="cls-32_financial-statement-10 targetColor" d="M148.7,351.29c-.69-.04-1.37.06-2.02.3-.41.18,2.31,1.73,2.02-.3Z" style="fill: rgb(122, 181, 172);"/><path class="cls-32_financial-statement-10 targetColor" d="M149.72,359.58c.68.04,1.36-.06,2-.29.41-.18-2.33-1.73-2,.29Z" style="fill: rgb(122, 181, 172);"/><path class="cls-32_financial-statement-10 targetColor" d="M148.55,351.72c-1.81-.81-3.26.22-3.26,2.32.08,2.2,1.32,4.2,3.26,5.24,1.81.83,3.28-.21,3.28-2.31-.09-2.21-1.34-4.2-3.28-5.25Z" style="fill: rgb(122, 181, 172);"/><path class="cls-32_financial-statement-10 targetColor" d="M148.55,354.41c-.52-.25-.96.07-.96.68.02.65.38,1.24.96,1.55.54.24.97-.07.97-.68-.02-.65-.39-1.24-.97-1.55Z" style="fill: rgb(122, 181, 172);"/><polygon class="cls-32_financial-statement-10 targetColor" points="127.95 343.17 161.49 366.58 161.05 367.48 127.51 344.06 127.95 343.17" style="fill: rgb(122, 181, 172);"/><polygon class="cls-32_financial-statement-10 targetColor" points="132.19 341.89 165.73 365.31 165.31 366.21 131.76 342.79 132.19 341.89" style="fill: rgb(122, 181, 172);"/><polygon class="cls-32_financial-statement-10 targetColor" points="136.83 338.78 170.37 362.19 169.94 363.07 136.4 339.67 136.83 338.78" style="fill: rgb(122, 181, 172);"/><polygon class="cls-32_financial-statement-10 targetColor" points="141.61 337.6 175.15 361.01 174.72 361.91 141.18 338.49 141.61 337.6" style="fill: rgb(122, 181, 172);"/><path class="cls-32_financial-statement-10 targetColor" d="M169.95,365.69c-1.81-.81-3.26.22-3.26,2.32.09,2.2,1.33,4.19,3.26,5.24,1.81.81,3.28-.22,3.28-2.32-.09-2.2-1.34-4.19-3.28-5.24Z" style="fill: rgb(122, 181, 172);"/><path class="cls-32_financial-statement-10 targetColor" d="M168.94,365.4c-.69-.04-1.37.06-2.02.3-.41.18,2.33,1.73,2.02-.3Z" style="fill: rgb(122, 181, 172);"/><path class="cls-32_financial-statement-10 targetColor" d="M169.95,373.69c.69.04,1.37-.06,2.02-.29.42-.18-2.32-1.73-2.02.29Z" style="fill: rgb(122, 181, 172);"/><path class="cls-32_financial-statement-10 targetColor" d="M168.8,365.83c-1.79-.81-3.26.22-3.26,2.32.08,2.2,1.32,4.2,3.26,5.24,1.81.83,3.28-.21,3.28-2.31-.09-2.21-1.34-4.2-3.28-5.25Z" style="fill: rgb(122, 181, 172);"/><path class="cls-32_financial-statement-10 targetColor" d="M168.8,368.52c-.52-.25-.96.07-.96.68.02.65.38,1.24.96,1.55.54.24.97,0,.97-.68-.02-.65-.39-1.24-.97-1.55Z" style="fill: rgb(122, 181, 172);"/><path class="cls-32_financial-statement-10 targetColor" d="M169.57,364.25c-.02-.44-.34-.82-.77-.9-.34-.07-.67.14-.75.48,0,0,0,0,0,0,0,.05,0,.11,0,.16v5.5c.01.44.33.81.76.9.32.09.65-.1.74-.42,0,0,0,0,0-.01.01-.06.01-.13,0-.2v-5.52Z" style="fill: rgb(122, 181, 172);"/><path class="cls-32_financial-statement-10 targetColor" d="M149.33,350.15c-.02-.45-.34-.82-.77-.92-.35-.07-.69.15-.76.5,0,0,0,0,0,0,0,.05,0,.1,0,.14v5.5c.02.44.34.82.77.9.32.09.65-.1.74-.42,0,0,0,0,0-.01.01-.06.01-.13,0-.2v-5.5Z" style="fill: rgb(122, 181, 172);"/><path class="cls-32_financial-statement-10 targetColor" d="M150.38,309.87l1.07,31.06c0,.25.18.47.43.51.2.01.38-.14.39-.34,0,0,0,0,0,0v-.07l-1.06-31.06c-.01-.25-.19-.46-.43-.51-.2-.02-.38.12-.41.32,0,0,0,0,0,0v.08h0ZM177.26,328.87l-5.24,26.6c-.04.25.09.49.33.59.17.08.37,0,.45-.17,0,0,0-.02,0-.02,0-.03,0-.05,0-.08l5.24-26.58c.07-.24-.04-.49-.26-.6-.18-.08-.38,0-.47.17,0,.03,0,.06,0,.09h-.05ZM157.75,315.08l-1.94,29.02c-.02.25.15.48.39.55.19.04.39-.08.43-.28h0l1.94-29.03c.02-.25-.15-.48-.39-.55-.19-.04-.39.08-.43.28,0,0,0,0,0,.01h0ZM170.25,323.91l-4.76,26.96c-.03.25.11.48.34.58.17.08.37,0,.46-.16,0-.04,0-.08,0-.12l4.74-26.94c.04-.25-.1-.49-.33-.59-.17-.08-.37,0-.45.17,0,0,0,.02,0,.02,0,.03,0,.06,0,.09v-.03ZM160.66,347.49c-.02.25.13.48.37.56.17.06.37-.02.43-.2,0-.04,0-.08,0-.12l3.51-27.82c.01-.2-.09-.39-.26-.5-.18-.07-.37.02-.44.2,0,0,0,0,0,.01,0,.03,0,.07,0,.1l-3.6,27.75Z" style="fill: rgb(122, 181, 172);"/><path class="cls-32_financial-statement-10 targetColor" d="M144.36,306.32l41.65,29.64-7.86,22.68-31.78-22.55-2-29.77ZM145.27,337.27l32.96,23.47c.3.26.76.23,1.02-.07,0,0,0,0,0,0l.09-.14,8.49-24.41c.13-.44-.03-.91-.41-1.18l-43.68-31c-.3-.26-.76-.23-1.02.07,0,0,0,0,0,0l-.09.14c-.06.14-.09.3-.09.46l2.24,31.85c.01.35.19.67.48.85v-.04Z" style="fill: rgb(122, 181, 172);"/><polygon class="cls-32_financial-statement-10 targetColor" points="152.48 341.55 128.27 350.32 127.84 349.27 152.07 340.51 152.48 341.55" style="fill: rgb(122, 181, 172);"/><polygon class="cls-32_financial-statement-10 targetColor" points="156.86 344.8 132.64 353.55 132.22 352.53 156.44 343.77 156.86 344.8" style="fill: rgb(122, 181, 172);"/><polygon class="cls-32_financial-statement-10 targetColor" points="161.43 347.83 137.22 356.59 136.79 355.56 161.01 346.81 161.43 347.83" style="fill: rgb(122, 181, 172);"/><polygon class="cls-32_financial-statement-10 targetColor" points="167.08 351.84 142.85 360.59 142.44 359.54 166.66 350.8 167.08 351.84" style="fill: rgb(122, 181, 172);"/><polygon class="cls-32_financial-statement-10 targetColor" points="172.9 356.23 148.67 364.99 148.25 363.96 172.48 355.19 172.9 356.23" style="fill: rgb(122, 181, 172);"/><path class="cls-32_financial-statement-10 targetColor" d="M122.98,344.32l-7.93-27.61,27.63-10.73,2.04,29.87-21.75,8.46ZM146.43,336.6l-2.19-31.86c-.03-.5-.4-.91-.89-.98-.12,0-.23.02-.34.07l-29.35,11.4c-.38.18-.56.62-.42,1.02l8.45,29.39c.1.48.56.81,1.05.76h.14l23.1-8.97c.32-.14.5-.47.45-.81Z" style="fill: rgb(122, 181, 172);"/><path class="cls-32_financial-statement-10 targetColor" d="M137.77,306.69l3.09,31.51c.02.25.21.45.46.48.2,0,.37-.16.37-.37,0,0,0-.02,0-.03h0l-3.08-31.51c-.02-.25-.21-.45-.46-.48-.21,0-.38.17-.38.38h0ZM131.81,309.02l4.59,30.95c.03.25.24.43.48.45.21-.01.37-.19.35-.4h0v-.07l-4.59-30.93c-.03-.24-.23-.43-.47-.45-.21.01-.37.19-.37.39,0,0,0-.01,0,.07ZM121.33,313.12l5.59,30.54c.03.25.23.44.48.45.22-.03.37-.22.34-.44,0,0,0,0,0,0h0l-5.59-30.54c-.04-.25-.25-.43-.5-.43-.2.02-.35.2-.33.4,0,0,0,0,0,0,0,0,0,.02,0,.03ZM126.88,310.61c.25.01.45.2.48.45l5.11,30.74c.06.19-.06.4-.25.45,0,0-.01,0-.02,0h0c-.25-.01-.45-.2-.48-.45l-5.11-30.72c-.06-.2.06-.41.26-.47,0,0,0,0,0,0h.01Z" style="fill: rgb(122, 181, 172);"/><path class="cls-32_financial-statement-10 targetColor" d="M145.65,348.39c.04.44.38.79.81.85.33.06.66-.16.72-.49,0,0,0,0,0,0,0-.06,0-.12,0-.18l-3.79-55.03c-.04-.45-.38-.81-.83-.86-.34-.05-.65.17-.71.51,0,0,0,0,0,0-.01.06-.01.12,0,.18l3.79,55.03Z" style="fill: rgb(122, 181, 172);"/><path class="cls-32_financial-statement-10 targetColor" d="M143.3,294.73c.61-.28.87-.99.6-1.6,0,0,0,0,0-.01-.02-.05-.05-.11-.08-.16-.32-.71-1.12-1.07-1.86-.84l-31.61,12.28c-.6.27-.87.98-.62,1.59.02.06.05.12.09.17.33.7,1.12,1.06,1.86.85l31.63-12.28Z" style="fill: rgb(122, 181, 172);"/><path class="cls-47_financial-statement-10 targetColor" d="M133.37,292.34s3.93,1.22,4.66,2.62,1.07,4.53.51,4.61-2.07-3.05-2.62-3.18-1.31-.69-1.19-.2.76,1.31.55,1.53-1.23-1.1-1.79-1.31-1.23-2.41-1.86-2.93,1.74-1.14,1.74-1.14Z" style="fill: rgb(122, 181, 172);"/><polygon class="cls-47_financial-statement-10 targetColor" points="106.22 287.73 112.45 298.66 110.44 300.01 101.98 290.93 106.22 287.73" style="fill: rgb(122, 181, 172);"/><path class="cls-47_financial-statement-10 targetColor" d="M111.84,298.46c.32.08.64.2.94.34.66.19,1.29.47,1.86.85.99.85,1.78,1.91,2.32,3.09.34.58.41,1.28.17,1.91-.29.4-.68.7-1.14.88-.12.07-.26.11-.39.12-.21-.03-.41-.13-.56-.28l-2.9-2.42c-.43-.31-.79-.7-1.07-1.15-.25-.45-.33-.97-.55-1.43s-.67-.72-.34-1.17,1.18-.6,1.66-.75Z" style="fill: rgb(122, 181, 172);"/><path class="cls-32_financial-statement-10 targetColor" d="M124.54,355.85c.11.43.51.72.96.68.34-.04.59-.35.55-.69v-.16l-14.27-50.07c-.12-.43-.52-.71-.96-.68-.35.05-.59.37-.55.72v.14l14.27,50.06Z" style="fill: rgb(122, 181, 172);"/><path class="cls-32_financial-statement-10 targetColor" d="M129.33,359.9c-1.81-.83-3.26.21-3.26,2.31.09,2.2,1.33,4.19,3.26,5.24,1.81.81,3.28-.22,3.28-2.32-.09-2.2-1.33-4.19-3.28-5.23Z" style="fill: rgb(122, 181, 172);"/><path class="cls-32_financial-statement-10 targetColor" d="M128.33,359.59c-.69-.04-1.37.06-2.02.3-.41.14,2.33,1.73,2.02-.3Z" style="fill: rgb(122, 181, 172);"/><path class="cls-32_financial-statement-10 targetColor" d="M129.33,367.9c.69.05,1.37-.05,2.02-.29.42-.2-2.32-1.74-2.02.29Z" style="fill: rgb(122, 181, 172);"/><path class="cls-32_financial-statement-10 targetColor" d="M128.18,360.04c-1.79-.81-3.26.22-3.26,2.32.08,2.2,1.32,4.2,3.26,5.24,1.81.83,3.28-.21,3.28-2.31-.09-2.21-1.34-4.2-3.28-5.25Z" style="fill: rgb(122, 181, 172);"/><path class="cls-32_financial-statement-10 targetColor" d="M128.18,362.66c-.52-.25-.96.07-.96.68.02.65.38,1.24.96,1.55.54.25.97,0,.97-.68-.02-.65-.39-1.24-.97-1.55Z" style="fill: rgb(122, 181, 172);"/><path class="cls-32_financial-statement-10 targetColor" d="M149.62,373.99c-1.79-.81-3.26.22-3.26,2.32.09,2.2,1.33,4.19,3.26,5.24,1.81.81,3.28-.22,3.28-2.32-.09-2.2-1.34-4.19-3.28-5.24Z" style="fill: rgb(122, 181, 172);"/><path class="cls-32_financial-statement-10 targetColor" d="M148.57,373.71c-.69-.04-1.37.06-2.02.3-.39.18,2.33,1.76,2.02-.3Z" style="fill: rgb(122, 181, 172);"/><path class="cls-32_financial-statement-10 targetColor" d="M149.59,382c.69.04,1.37-.06,2.02-.29.41-.18-2.33-1.73-2.02.29Z" style="fill: rgb(122, 181, 172);"/><path class="cls-32_financial-statement-10 targetColor" d="M148.44,374.14c-1.81-.81-3.28.22-3.28,2.32.08,2.2,1.33,4.2,3.28,5.24,1.81.83,3.26-.21,3.26-2.31-.08-2.21-1.32-4.2-3.26-5.25Z" style="fill: rgb(122, 181, 172);"/><path class="cls-32_financial-statement-10 targetColor" d="M149.21,372.57c-.02-.45-.34-.82-.77-.92-.34-.08-.68.13-.76.46,0,0,0,0,0,0,0,.06,0,.11,0,.17v5.5c.02.45.34.82.77.92.35.07.69-.15.76-.5,0,0,0,0,0,0,0-.05,0-.1,0-.14v-5.5Z" style="fill: rgb(122, 181, 172);"/><path class="cls-32_financial-statement-10 targetColor" d="M173.95,368.98l-27.91-19.89-18.8,7.17,27.83,20.09,18.88-7.36h0ZM154.67,377.79l-29.39-21.2c-.37-.24-.5-.71-.3-1.1.07-.11.17-.2.29-.25l20.39-7.77c.26-.08.55-.03.76.14l29.48,20.96c.37.24.5.71.3,1.1-.07.12-.18.22-.31.26l-20.44,7.97c-.26.09-.55.05-.77-.12h0Z" style="fill: rgb(122, 181, 172);"/><path class="cls-32_financial-statement-10 targetColor" d="M128.95,358.46c-.01-.45-.33-.82-.77-.9-.33-.08-.66.12-.74.45,0,0,0,0,0,0,0,.06,0,.11,0,.17v5.5c.01.44.33.82.76.92.34.08.68-.13.76-.46,0,0,0,0,0,0,0-.06,0-.11,0-.17v-5.5Z" style="fill: rgb(122, 181, 172);"/><path class="cls-32_financial-statement-10 targetColor" d="M151.82,352.18l-.42-1.04-21.26,7.69.42,1.04,21.26-7.69ZM156.19,355.44l-21.26,7.69-.42-1.04,21.26-7.69.42,1.04h0ZM160.78,358.47l-21.26,7.69-.42-1.04,21.25-7.7.42,1.04h.01ZM166.43,362.4l-21.26,7.69-.42-1.04,21.28-7.61.42,1.04v-.08ZM150.98,374.49l-.42-1.04,21.26-7.69.42,1.04-21.26,7.69Z" style="fill: rgb(122, 181, 172);"/><path class="cls-26_financial-statement-10" d="M169.95,365.69c-1.81-.81-3.26.22-3.26,2.32.09,2.2,1.33,4.19,3.26,5.24,1.81.81,3.28-.22,3.28-2.32-.09-2.2-1.34-4.19-3.28-5.24Z"/><path class="cls-23_financial-statement-10" d="M168.94,365.4c-.69-.04-1.37.06-2.02.3-.41.18,2.33,1.73,2.02-.3Z"/><path class="cls-27_financial-statement-10" d="M169.95,373.69c.69.04,1.37-.06,2.02-.29.42-.18-2.32-1.73-2.02.29Z"/><path class="cls-33_financial-statement-10" d="M168.8,365.83c-1.79-.81-3.26.22-3.26,2.32.08,2.2,1.32,4.2,3.26,5.24,1.81.83,3.28-.21,3.28-2.31-.09-2.21-1.34-4.2-3.28-5.25Z"/><path class="cls-28_financial-statement-10" d="M168.8,368.52c-.52-.25-.96.07-.96.68.02.65.38,1.24.96,1.55.54.24.97,0,.97-.68-.02-.65-.39-1.24-.97-1.55Z"/><path class="cls-25_financial-statement-10" d="M169.57,364.25c-.02-.44-.34-.82-.77-.9-.34-.07-.67.14-.75.48,0,0,0,0,0,0,0,.05,0,.11,0,.16v5.5c.01.44.33.81.76.9.32.09.65-.1.74-.42,0,0,0,0,0-.01.01-.06.01-.13,0-.2v-5.52Z"/><path class="cls-24_financial-statement-10" d="M150.38,309.87l1.07,31.06c0,.25.18.47.43.51.2.01.38-.14.39-.34,0,0,0,0,0,0v-.07l-1.06-31.06c-.01-.25-.19-.46-.43-.51-.2-.02-.38.12-.41.32,0,0,0,0,0,0v.08h0ZM177.26,328.87l-5.24,26.6c-.04.25.09.49.33.59.17.08.37,0,.45-.17,0,0,0-.02,0-.02,0-.03,0-.05,0-.08l5.24-26.58c.07-.24-.04-.49-.26-.6-.18-.08-.38,0-.47.17,0,.03,0,.06,0,.09h-.05ZM157.75,315.08l-1.94,29.02c-.02.25.15.48.39.55.19.04.39-.08.43-.28h0l1.94-29.03c.02-.25-.15-.48-.39-.55-.19-.04-.39.08-.43.28,0,0,0,0,0,.01h0ZM170.25,323.91l-4.76,26.96c-.03.25.11.48.34.58.17.08.37,0,.46-.16,0-.04,0-.08,0-.12l4.74-26.94c.04-.25-.1-.49-.33-.59-.17-.08-.37,0-.45.17,0,0,0,.02,0,.02,0,.03,0,.06,0,.09v-.03ZM160.66,347.49c-.02.25.13.48.37.56.17.06.37-.02.43-.2,0-.04,0-.08,0-.12l3.51-27.82c.01-.2-.09-.39-.26-.5-.18-.07-.37.02-.44.2,0,0,0,0,0,.01,0,.03,0,.07,0,.1l-3.6,27.75Z"/><path class="cls-29_financial-statement-10" d="M144.36,306.32l41.65,29.64-7.86,22.68-31.78-22.55-2-29.77ZM145.27,337.27l32.96,23.47c.3.26.76.23,1.02-.07,0,0,0,0,0,0l.09-.14,8.49-24.41c.13-.44-.03-.91-.41-1.18l-43.68-31c-.3-.26-.76-.23-1.02.07,0,0,0,0,0,0l-.09.14c-.06.14-.09.3-.09.46l2.24,31.85c.01.35.19.67.48.85v-.04Z"/><path class="cls-16_financial-statement-10" d="M122.98,344.32l-7.93-27.61,27.63-10.73,2.04,29.87-21.75,8.46ZM146.43,336.6l-2.19-31.86c-.03-.5-.4-.91-.89-.98-.12,0-.23.02-.34.07l-29.35,11.4c-.38.18-.56.62-.42,1.02l8.45,29.39c.1.48.56.81,1.05.76h.14l23.1-8.97c.32-.14.5-.47.45-.81Z"/><path class="cls-31_financial-statement-10" d="M137.77,306.69l3.09,31.51c.02.25.21.45.46.48.2,0,.37-.16.37-.37,0,0,0-.02,0-.03h0l-3.08-31.51c-.02-.25-.21-.45-.46-.48-.21,0-.38.17-.38.38h0ZM131.81,309.02l4.59,30.95c.03.25.24.43.48.45.21-.01.37-.19.35-.4h0v-.07l-4.59-30.93c-.03-.24-.23-.43-.47-.45-.21.01-.37.19-.37.39,0,0,0-.01,0,.07ZM121.33,313.12l5.59,30.54c.03.25.23.44.48.45.22-.03.37-.22.34-.44,0,0,0,0,0,0h0l-5.59-30.54c-.04-.25-.25-.43-.5-.43-.2.02-.35.2-.33.4,0,0,0,0,0,0,0,0,0,.02,0,.03ZM126.88,310.61c.25.01.45.2.48.45l5.11,30.74c.06.19-.06.4-.25.45,0,0-.01,0-.02,0h0c-.25-.01-.45-.2-.48-.45l-5.11-30.72c-.06-.2.06-.41.26-.47,0,0,0,0,0,0h.01Z"/><path class="cls-30_financial-statement-10" d="M145.65,348.39c.04.44.38.79.81.85.33.06.66-.16.72-.49,0,0,0,0,0,0,0-.06,0-.12,0-.18l-3.79-55.03c-.04-.45-.38-.81-.83-.86-.34-.05-.65.17-.71.51,0,0,0,0,0,0-.01.06-.01.12,0,.18l3.79,55.03Z"/><path class="cls-32_financial-statement-10 targetColor" d="M143.3,294.73c.61-.28.87-.99.6-1.6,0,0,0,0,0-.01-.02-.05-.05-.11-.08-.16-.32-.71-1.12-1.07-1.86-.84l-31.61,12.28c-.6.27-.87.98-.62,1.59.02.06.05.12.09.17.33.7,1.12,1.06,1.86.85l31.63-12.28Z" style="fill: rgb(122, 181, 172);"/><path class="cls-46_financial-statement-10" d="M133.37,292.34s3.93,1.22,4.66,2.62,1.07,4.53.51,4.61-2.07-3.05-2.62-3.18-1.31-.69-1.19-.2.76,1.31.55,1.53-1.23-1.1-1.79-1.31-1.23-2.41-1.86-2.93,1.74-1.14,1.74-1.14Z"/><polygon class="cls-46_financial-statement-10" points="106.22 287.73 112.45 298.66 110.44 300.01 101.98 290.93 106.22 287.73"/><path class="cls-46_financial-statement-10" d="M111.84,298.46c.32.08.64.2.94.34.66.19,1.29.47,1.86.85.99.85,1.78,1.91,2.32,3.09.34.58.41,1.28.17,1.91-.29.4-.68.7-1.14.88-.12.07-.26.11-.39.12-.21-.03-.41-.13-.56-.28l-2.9-2.42c-.43-.31-.79-.7-1.07-1.15-.25-.45-.33-.97-.55-1.43s-.67-.72-.34-1.17,1.18-.6,1.66-.75Z"/><path class="cls-13_financial-statement-10" d="M124.54,355.85c.11.43.51.72.96.68.34-.04.59-.35.55-.69v-.16l-14.27-50.07c-.12-.43-.52-.71-.96-.68-.35.05-.59.37-.55.72v.14l14.27,50.06Z"/><path class="cls-14_financial-statement-10" d="M129.33,359.9c-1.81-.83-3.26.21-3.26,2.31.09,2.2,1.33,4.19,3.26,5.24,1.81.81,3.28-.22,3.28-2.32-.09-2.2-1.33-4.19-3.28-5.23Z"/><path class="cls-17_financial-statement-10" d="M128.33,359.59c-.69-.04-1.37.06-2.02.3-.41.14,2.33,1.73,2.02-.3Z"/><path class="cls-20_financial-statement-10" d="M129.33,367.9c.69.05,1.37-.05,2.02-.29.42-.2-2.32-1.74-2.02.29Z"/><path class="cls-33_financial-statement-10" d="M128.18,360.04c-1.79-.81-3.26.22-3.26,2.32.08,2.2,1.32,4.2,3.26,5.24,1.81.83,3.28-.21,3.28-2.31-.09-2.21-1.34-4.2-3.28-5.25Z"/><path class="cls-15_financial-statement-10" d="M128.18,362.66c-.52-.25-.96.07-.96.68.02.65.38,1.24.96,1.55.54.25.97,0,.97-.68-.02-.65-.39-1.24-.97-1.55Z"/><path class="cls-18_financial-statement-10" d="M149.62,373.99c-1.79-.81-3.26.22-3.26,2.32.09,2.2,1.33,4.19,3.26,5.24,1.81.81,3.28-.22,3.28-2.32-.09-2.2-1.34-4.19-3.28-5.24Z"/><path class="cls-21_financial-statement-10" d="M148.57,373.71c-.69-.04-1.37.06-2.02.3-.39.18,2.33,1.76,2.02-.3Z"/><path class="cls-22_financial-statement-10" d="M149.59,382c.69.04,1.37-.06,2.02-.29.41-.18-2.33-1.73-2.02.29Z"/><path class="cls-33_financial-statement-10" d="M148.44,374.14c-1.81-.81-3.28.22-3.28,2.32.08,2.2,1.33,4.2,3.28,5.24,1.81.83,3.26-.21,3.26-2.31-.08-2.21-1.32-4.2-3.26-5.25Z"/><path class="cls-34_financial-statement-10" d="M149.21,372.57c-.02-.45-.34-.82-.77-.92-.34-.08-.68.13-.76.46,0,0,0,0,0,0,0,.06,0,.11,0,.17v5.5c.02.45.34.82.77.92.35.07.69-.15.76-.5,0,0,0,0,0,0,0-.05,0-.1,0-.14v-5.5Z"/><path class="cls-34_financial-statement-10" d="M128.95,358.46c-.01-.45-.33-.82-.77-.9-.33-.08-.66.12-.74.45,0,0,0,0,0,0,0,.06,0,.11,0,.17v5.5c.01.44.33.82.76.92.34.08.68-.13.76-.46,0,0,0,0,0,0,0-.06,0-.11,0-.17v-5.5Z"/><path class="cls-19_financial-statement-10" d="M151.82,352.18l-.42-1.04-21.26,7.69.42,1.04,21.26-7.69ZM156.19,355.44l-21.26,7.69-.42-1.04,21.26-7.69.42,1.04h0ZM160.78,358.47l-21.26,7.69-.42-1.04,21.25-7.7.42,1.04h.01ZM166.43,362.4l-21.26,7.69-.42-1.04,21.28-7.61.42,1.04v-.08ZM150.98,374.49l-.42-1.04,21.26-7.69.42,1.04-21.26,7.69Z"/><path class="cls-34_financial-statement-10" d="M156.47,367.6l1.98-19.76,27.12-10.48-7.64,21.96-21.46,8.33v-.05ZM179.4,360.41l8.44-24.26c.14-.48-.07-1-.51-1.24-.2-.11-.44-.13-.66-.07l-29.37,11.41c-.26.11-.43.36-.46.64l-2.19,21.89c-.04.5.27.96.75,1.11.15.05.31.05.46,0l23.12-8.99c.21-.09.36-.28.42-.5Z"/><path class="cls-34_financial-statement-10" d="M179.58,338.29l-5.18,23.06c-.05.25.08.5.31.6.18.08.38,0,.47-.17,0-.03,0-.06,0-.09l5.24-23.07c.04-.24-.09-.49-.31-.59-.18-.08-.38,0-.47.17,0,.03,0,.06,0,.09h-.07ZM173.6,340.62c.03-.19.2-.33.39-.31h.09c.23.09.37.33.34.58l-3.67,22.46c-.01.19-.18.34-.38.33,0,0,0,0,0,0h-.1c-.24-.09-.38-.34-.34-.59l3.67-22.46ZM163.12,344.74l-2.62,22.06c-.02.25.13.48.37.56.19.05.38-.05.45-.24,0-.03,0-.06,0-.09l2.62-22.06c.02-.25-.13-.48-.37-.56-.19-.05-.38.05-.45.24,0,.03,0,.06,0,.09h0ZM165.21,364.94c-.03.25.12.49.35.58.17.07.37-.01.44-.19,0-.02.01-.03.02-.05h0l3.14-22.27c.03-.25-.11-.49-.35-.58-.19-.05-.4.06-.46.25,0,.02,0,.04,0,.07l-3.14,22.19Z"/><path class="cls-47_financial-statement-10 targetColor" d="M92.65,235.47c-.22.38-.39.79-.5,1.22-.62,1.45-.62,3.08,0,4.53.22.57.53,1.11.9,1.6.39.49.94.82,1.55.96.06.01.13.01.2,0,.05-.02.1-.07.13-.12.16-.4.16-.84,0-1.24-.25-1.57-.13-3.18.34-4.7.18-.56.29-1.14.3-1.73.04-.66-.39-1.26-1.04-1.43-.76-.12-1.51.25-1.89.92Z" style="fill: rgb(122, 181, 172);"/><polygon class="cls-34_financial-statement-10" points="113.66 315.21 158.16 346.48 157.46 348.68 114.07 317.54 113.66 315.21"/><polygon class="cls-34_financial-statement-10" points="124.21 324.5 128.35 349.49 129.22 349.76 125.82 325.44 124.21 324.5"/><polygon class="cls-34_financial-statement-10" points="132.27 330.13 134.52 354.17 135.39 354.46 133.88 331.09 132.27 330.13"/><polygon class="cls-34_financial-statement-10" points="140.17 335.38 140.43 358.27 141.3 358.56 141.78 336.37 140.17 335.38"/><polygon class="cls-34_financial-statement-10" points="146.06 340.39 147.17 363.67 148.03 363.96 147.68 341.36 146.06 340.39"/><polygon class="cls-34_financial-statement-10" points="155.2 367.6 122.97 344.31 122.74 346.43 155.39 369.89 155.2 367.6"/></g><g id="bubble_financial-statement-10"><path class="cls-45_financial-statement-10" d="M67.24,180.47v22.18c-.07,4.27,3.33,7.79,7.6,7.86,0,0,0,0,0,0h17.03l7.66,11.1v-11.1h14.41c4.27-.06,7.68-3.56,7.63-7.83,0,0,0-.02,0-.03v-22.27c.06-4.27-3.35-7.79-7.63-7.86h-39.1c-4.28.07-7.68,3.59-7.61,7.87,0,.03,0,.06,0,.08Z"/><path class="cls-47_financial-statement-10 targetColor" d="M91.34,207.65l.14-3.77c-1.94-.09-3.81-.75-5.38-1.89l.94-2.44c1.48,1.09,3.25,1.72,5.08,1.81,2.62.09,4.34-1.31,4.42-3.46s-1.31-3.35-3.93-4.59c-3.6-1.62-5.8-3.43-5.67-6.64.12-3.11,2.6-5.6,5.71-5.74l.13-3.77,2.23.09-.13,3.59c1.64.09,3.23.61,4.61,1.49l-.97,2.45c-1.35-.91-2.93-1.42-4.56-1.45-2.76-.12-3.93,1.55-3.93,3.03-.08,1.93,1.22,2.93,4.26,4.4,3.66,1.7,5.44,3.71,5.24,7-.14,3.23-2.68,5.84-5.91,6.07l-.14,3.85-2.14-.03Z" style="fill: rgb(122, 181, 172);"/></g></svg>