<svg id="_0556_piggy_bank" xmlns="http://www.w3.org/2000/svg" xmlns:xlink="http://www.w3.org/1999/xlink" viewBox="0 0 500 500" data-imageid="savings-1-99" imageName="Savings 1" class="illustrations_image" style="width: 166px;"><defs><style>.cls-1_savings-1-99{fill:url(#linear-gradient-12-savings-1-99);}.cls-1_savings-1-99,.cls-2_savings-1-99,.cls-3_savings-1-99,.cls-4_savings-1-99,.cls-5_savings-1-99,.cls-6_savings-1-99,.cls-7_savings-1-99,.cls-8_savings-1-99,.cls-9_savings-1-99,.cls-10_savings-1-99,.cls-11_savings-1-99,.cls-12_savings-1-99,.cls-13_savings-1-99,.cls-14_savings-1-99,.cls-15_savings-1-99,.cls-16_savings-1-99,.cls-17_savings-1-99,.cls-18_savings-1-99,.cls-19_savings-1-99,.cls-20_savings-1-99,.cls-21_savings-1-99,.cls-22_savings-1-99,.cls-23_savings-1-99,.cls-24_savings-1-99,.cls-25_savings-1-99,.cls-26_savings-1-99,.cls-27_savings-1-99,.cls-28_savings-1-99,.cls-29_savings-1-99,.cls-30_savings-1-99,.cls-31_savings-1-99,.cls-32_savings-1-99,.cls-33_savings-1-99,.cls-34_savings-1-99,.cls-35_savings-1-99,.cls-36_savings-1-99,.cls-37_savings-1-99,.cls-38_savings-1-99,.cls-39_savings-1-99,.cls-40_savings-1-99{stroke-width:0px;}.cls-1_savings-1-99,.cls-2_savings-1-99,.cls-26_savings-1-99{isolation:isolate;}.cls-1_savings-1-99,.cls-26_savings-1-99{opacity:.19;}.cls-41_savings-1-99{fill:none;stroke:#fff;stroke-linecap:round;stroke-linejoin:round;stroke-width:5.18px;}.cls-2_savings-1-99{opacity:.18;}.cls-2_savings-1-99,.cls-40_savings-1-99{fill:#68e1fd;}.cls-3_savings-1-99{fill:url(#linear-gradient-33-savings-1-99);}.cls-4_savings-1-99{fill:url(#linear-gradient-29-savings-1-99);}.cls-5_savings-1-99{fill:url(#linear-gradient-32-savings-1-99);}.cls-6_savings-1-99{fill:url(#linear-gradient-30-savings-1-99);}.cls-7_savings-1-99{fill:url(#linear-gradient-31-savings-1-99);}.cls-8_savings-1-99{fill:url(#linear-gradient-28-savings-1-99);}.cls-9_savings-1-99{fill:url(#linear-gradient-25-savings-1-99);}.cls-10_savings-1-99{fill:url(#linear-gradient-11-savings-1-99);}.cls-11_savings-1-99{fill:url(#linear-gradient-13-savings-1-99);}.cls-12_savings-1-99{fill:url(#linear-gradient-10-savings-1-99);}.cls-13_savings-1-99{fill:url(#linear-gradient-17-savings-1-99);}.cls-14_savings-1-99{fill:url(#linear-gradient-16-savings-1-99);}.cls-15_savings-1-99{fill:url(#linear-gradient-19-savings-1-99);}.cls-16_savings-1-99{fill:url(#linear-gradient-15-savings-1-99);}.cls-17_savings-1-99{fill:url(#linear-gradient-23-savings-1-99);}.cls-18_savings-1-99{fill:url(#linear-gradient-21-savings-1-99);}.cls-19_savings-1-99{fill:url(#linear-gradient-18-savings-1-99);}.cls-20_savings-1-99{fill:url(#linear-gradient-14-savings-1-99);}.cls-21_savings-1-99{fill:url(#linear-gradient-22-savings-1-99);}.cls-22_savings-1-99{fill:url(#linear-gradient-20-savings-1-99);}.cls-23_savings-1-99{fill:url(#linear-gradient-27-savings-1-99);}.cls-24_savings-1-99{fill:url(#linear-gradient-24-savings-1-99);}.cls-25_savings-1-99{fill:url(#linear-gradient-26-savings-1-99);}.cls-26_savings-1-99{fill:url(#linear-gradient);}.cls-27_savings-1-99{fill:url(#linear-gradient-4-savings-1-99);}.cls-28_savings-1-99{fill:url(#linear-gradient-2-savings-1-99);}.cls-29_savings-1-99{fill:url(#linear-gradient-3-savings-1-99);}.cls-30_savings-1-99{fill:url(#linear-gradient-8-savings-1-99);}.cls-31_savings-1-99{fill:url(#linear-gradient-9-savings-1-99);}.cls-32_savings-1-99{fill:url(#linear-gradient-7-savings-1-99);}.cls-33_savings-1-99{fill:url(#linear-gradient-5-savings-1-99);}.cls-34_savings-1-99{fill:url(#linear-gradient-6-savings-1-99);}.cls-35_savings-1-99{fill:#f9c6d6;}.cls-36_savings-1-99{fill:#473f47;}.cls-37_savings-1-99{fill:#565056;}.cls-38_savings-1-99{fill:#25233a;}.cls-39_savings-1-99{fill:#fff;}</style><linearGradient id="linear-gradient-savings-1-99" x1="4019.43" y1="424.49" x2="4019.37" y2="514.86" gradientTransform="translate(4302.99 838.32) rotate(-180)" gradientUnits="userSpaceOnUse"><stop offset="0" stop-color="#183866"/><stop offset="1" stop-color="#68e1fd"/></linearGradient><linearGradient id="linear-gradient-2-savings-1-99" x1="397.73" y1="335.9" x2="445.33" y2="335.9" gradientUnits="userSpaceOnUse"><stop offset="0" stop-color="#fff" stop-opacity="0"/><stop offset="1" stop-color="#fff"/></linearGradient><linearGradient id="linear-gradient-3-savings-1-99" x1="83.68" y1="387.05" x2="149.55" y2="387.05" xlink:href="#linear-gradient-2-savings-1-99"/><linearGradient id="linear-gradient-4-savings-1-99" x1="88.67" y1="380.91" x2="144.47" y2="380.91" gradientTransform="translate(495.77 258.9) rotate(89.18)" xlink:href="#linear-gradient-2-savings-1-99"/><linearGradient id="linear-gradient-5-savings-1-99" x1="98.92" y1="380.76" x2="164.79" y2="380.76" xlink:href="#linear-gradient-2-savings-1-99"/><linearGradient id="linear-gradient-6-savings-1-99" x1="103.9" y1="374.62" x2="159.69" y2="374.62" gradientTransform="translate(504.49 237.47) rotate(89.18)" xlink:href="#linear-gradient-2-savings-1-99"/><linearGradient id="linear-gradient-7-savings-1-99" x1="4283.54" y1="603.93" x2="4283.29" y2="581.61" gradientTransform="translate(4412.38 838.32) rotate(-180)" gradientUnits="userSpaceOnUse"><stop offset="0" stop-color="#68e1fd"/><stop offset="1" stop-color="#68e1fd"/></linearGradient><linearGradient id="linear-gradient-8-savings-1-99" x1="4225.13" y1="572.58" x2="4341.33" y2="572.58" xlink:href="#linear-gradient-7-savings-1-99"/><linearGradient id="linear-gradient-9-savings-1-99" x1="4257.34" y1="353.67" x2="4221.92" y2="523.89" gradientTransform="translate(4412.38 838.32) rotate(-180)" gradientUnits="userSpaceOnUse"><stop offset="0" stop-color="#000"/><stop offset="1" stop-color="#000" stop-opacity="0"/></linearGradient><linearGradient id="linear-gradient-10-savings-1-99" x1="4013.22" y1="555.2" x2="3990.48" y2="664.5" gradientTransform="translate(4302.99 1008.32) rotate(-180)" xlink:href="#linear-gradient-9-savings-1-99"/><linearGradient id="linear-gradient-11-savings-1-99" x1="-1040.44" y1="-537.41" x2="-969.72" y2="-285.88" gradientTransform="translate(1264.67 652.88)" gradientUnits="userSpaceOnUse"><stop offset="0" stop-color="#fff" stop-opacity="0"/><stop offset=".54" stop-color="#fff"/></linearGradient><linearGradient id="linear-gradient-12-savings-1-99" x1="-1084.01" y1="-307.06" x2="-1060.81" y2="-428.56" gradientTransform="translate(1264.67 652.88)" xlink:href="#linear-gradient-9-savings-1-99"/><linearGradient id="linear-gradient-13-savings-1-99" x1="4183.27" y1="783.49" x2="4181.62" y2="832.24" gradientTransform="translate(4302.99 1008.32) rotate(-180)" xlink:href="#linear-gradient-9-savings-1-99"/><linearGradient id="linear-gradient-14-savings-1-99" x1="-1157.34" y1="-416.44" x2="-1142.04" y2="-496.65" gradientTransform="translate(1264.67 652.88)" xlink:href="#linear-gradient-9-savings-1-99"/><linearGradient id="linear-gradient-15-savings-1-99" x1="3998.82" y1="547.92" x2="4019.81" y2="749.83" gradientTransform="translate(4302.99 1008.32) rotate(-180)" gradientUnits="userSpaceOnUse"><stop offset="0" stop-color="#000"/><stop offset=".07" stop-color="#000" stop-opacity=".84"/><stop offset="1" stop-color="#000" stop-opacity="0"/></linearGradient><linearGradient id="linear-gradient-16-savings-1-99" x1="-901.93" y1="-349.08" x2="-899.07" y2="-220.6" gradientTransform="translate(1264.67 652.88)" xlink:href="#linear-gradient-15-savings-1-99"/><linearGradient id="linear-gradient-17-savings-1-99" x1="-898.32" y1="-333.13" x2="-895.28" y2="-196.29" gradientTransform="translate(1264.67 652.88)" xlink:href="#linear-gradient-15-savings-1-99"/><linearGradient id="linear-gradient-18-savings-1-99" x1="-1110.34" y1="-386.12" x2="-1103.96" y2="-566.77" xlink:href="#linear-gradient-11-savings-1-99"/><linearGradient id="linear-gradient-19-savings-1-99" x1="4161.89" y1="594.24" x2="4182.68" y2="549.04" gradientTransform="translate(4302.99 838.32) rotate(-180)" xlink:href="#linear-gradient-9-savings-1-99"/><linearGradient id="linear-gradient-20-savings-1-99" x1="4198.55" y1="611.1" x2="4219.34" y2="565.9" gradientTransform="translate(4302.99 838.32) rotate(-180)" xlink:href="#linear-gradient-9-savings-1-99"/><linearGradient id="linear-gradient-21-savings-1-99" x1="4316.94" y1="530.02" x2="4314.23" y2="596.31" gradientTransform="translate(4412.38 838.32) rotate(-180)" gradientUnits="userSpaceOnUse"><stop offset="0" stop-color="#fff" stop-opacity="0"/><stop offset=".67" stop-color="#fff"/></linearGradient><linearGradient id="linear-gradient-22-savings-1-99" x1="4298.58" y1="619.21" x2="4352.83" y2="533.34" gradientTransform="translate(322.68 4639.63) rotate(-100.41)" xlink:href="#linear-gradient-9-savings-1-99"/><linearGradient id="linear-gradient-23-savings-1-99" x1="4323.74" y1="576.19" x2="4341.81" y2="492.71" xlink:href="#linear-gradient-9-savings-1-99"/><linearGradient id="linear-gradient-24-savings-1-99" x1="4299.06" y1="360.61" x2="4263.64" y2="530.83" xlink:href="#linear-gradient-9-savings-1-99"/><linearGradient id="linear-gradient-25-savings-1-99" x1="-1107.93" y1="-395.21" x2="-1030.65" y2="-451.59" gradientTransform="translate(1264.67 652.88)" xlink:href="#linear-gradient-9-savings-1-99"/><linearGradient id="linear-gradient-26-savings-1-99" x1="-1060.01" y1="-397.86" x2="-1044.69" y2="-478.06" gradientTransform="translate(1264.67 652.88)" xlink:href="#linear-gradient-9-savings-1-99"/><linearGradient id="linear-gradient-27-savings-1-99" x1="4115.08" y1="694.75" x2="4123.69" y2="648.34" xlink:href="#linear-gradient-9-savings-1-99"/><linearGradient id="linear-gradient-28-savings-1-99" x1="4077.17" y1="335.48" x2="4041.74" y2="505.7" xlink:href="#linear-gradient-9-savings-1-99"/><linearGradient id="linear-gradient-29-savings-1-99" x1="4195.42" y1="337.02" x2="4160" y2="507.24" xlink:href="#linear-gradient-9-savings-1-99"/><linearGradient id="linear-gradient-30-savings-1-99" x1="-1148.98" y1="-464.07" x2="-1145.01" y2="-286" gradientTransform="translate(1428.36 650.88) skewX(-7.97)" xlink:href="#linear-gradient-15-savings-1-99"/><linearGradient id="linear-gradient-31-savings-1-99" x1="-1143.19" y1="-432.88" x2="-1142.01" y2="-380.12" gradientTransform="translate(1428.36 650.88) skewX(-7.97)" xlink:href="#linear-gradient-15-savings-1-99"/><linearGradient id="linear-gradient-32-savings-1-99" x1="268.73" y1="137.35" x2="316.32" y2="137.35" xlink:href="#linear-gradient-2-savings-1-99"/><linearGradient id="linear-gradient-33-savings-1-99" x1="-953.87" y1="-513.86" x2="-962.74" y2="-497.57" gradientTransform="translate(1264.67 652.88)" xlink:href="#linear-gradient-9-savings-1-99"/></defs><g id="background_savings-1-99"><path class="cls-2_savings-1-99 targetColor" d="M26.03,246.54c6.71,10.36,15.2,17.53,18.44,30.61,3.31,13.31,2.33,27.82-1.68,40.87-5.05,16.46-13.98,32.02-15.01,49.2-1.94,32.51,26.14,60.74,57.33,70.1,35.93,10.86,72.28-.58,108.28,4,39.5,5.02,82.33,7.21,122.04,4.16,34.48-2.67,74.19-5.11,102.87-26.39,48.19-35.76,68.08-81.57,72.92-139.47,1.75-20.86-12.73-39.18-19.52-58.99-10.36-30.08-3.07-64.99-17.8-93.22-8.99-17.21-25.39-29.78-43.39-37.03-18-7.25-37.55-9.81-56.97-10.78-26.71-1.29-53.85.21-79.5,7.77-14.09,4.18-27.67,10.18-42,13.14-24.6,5.06-39.15-6.69-61.42-12.29-24.72-6.21-50.6-9.06-75.87-4.54-36.55,6.47-71.69,30.31-83.2,65.58-9.65,29.53-2.47,69.29,13.49,95.71.34.53.66,1.06,1,1.58Z" style="fill: rgb(122, 181, 172);"/><ellipse class="cls-26_savings-1-99" cx="283.58" cy="396.53" rx="135.95" ry="26.97"/></g><g id="coins_savings-1-99"><circle class="cls-40_savings-1-99 targetColor" cx="421.52" cy="335.87" r="27.91" style="fill: rgb(122, 181, 172);"/><circle class="cls-28_savings-1-99" cx="421.53" cy="335.9" r="23.8"/><path class="cls-40_savings-1-99 targetColor" d="M410.39,346.14l2.41-2.96c-1.59-1.28-2.78-2.99-3.44-4.92l2.29-1.4c.59,1.83,1.69,3.44,3.17,4.66,2.11,1.7,4.48,1.63,5.83,0,1.35-1.63.97-3.53-.48-6.18-2.03-3.61-2.8-6.47-.73-9.06,2.07-2.59,5.18-2.87,8.26-1.13l2.4-2.96,1.81,1.48-2.29,2.84c1.32,1.1,2.34,2.52,2.98,4.12l-2.32,1.39c-.57-1.57-1.57-2.95-2.89-3.99-2.25-1.84-4.19-1.17-5.18,0-1.29,1.53-.78,3.17.92,6.29,2.02,3.68,2.32,6.47.21,9.06-2.15,2.57-5.88,3.13-8.69,1.29l-2.43,3.02-1.83-1.54Z" style="fill: rgb(122, 181, 172);"/><path class="cls-29_savings-1-99" d="M116.61,400.43c-18.13-.26-32.67-6.47-32.56-13.84,0-.82-.61-5.45-.26-6.19,2.86-6.2,17.12-6.93,33.2-6.71,15.82.23,29.11,0,32.07,6.11.44.88.5,6.84.49,7.77-.09,7.34-14.85,13.12-32.94,12.86Z"/><ellipse class="cls-40_savings-1-99 targetColor" cx="116.57" cy="380.91" rx="13.36" ry="32.74" transform="translate(-265.96 492.01) rotate(-89.18)" style="fill: rgb(122, 181, 172);"/><ellipse class="cls-27_savings-1-99" cx="116.57" cy="380.91" rx="11.38" ry="27.9" transform="translate(-265.96 492.01) rotate(-89.18)"/><path class="cls-40_savings-1-99 targetColor" d="M98.98,379.56l4.45.08c.18-1.18.92-2.2,1.99-2.73l2.96.47c-1.03.49-1.76,1.46-1.94,2.59,0,1.29,1.8,2.19,4.31,2.21,1.97.16,3.92-.56,5.31-1.97,1.99-2.08,4.82-3.13,7.69-2.86,3.68,0,6.47,1.15,7.11,2.82l4.45.06v1.11l-4.3-.08c-.13.99-.71,1.85-1.58,2.34l-2.91-.49c.84-.47,1.41-1.31,1.54-2.27,0-1.37-2.01-1.94-3.79-1.97-1.93-.1-3.81.7-5.08,2.16-1.88,1.84-4.19,2.73-8.18,2.73-3.51,0-6.84-1.09-7.5-2.96h-4.61l.06-1.26Z" style="fill: rgb(122, 181, 172);"/><path class="cls-33_savings-1-99" d="M131.85,394.14c-18.13-.26-32.67-6.47-32.56-13.83,0-.83-.61-5.46-.26-6.2,2.85-6.2,17.12-6.91,33.2-6.71,15.82.23,29.11,0,32.07,6.12.44.87.5,6.82.49,7.77-.08,7.33-14.85,13.1-32.94,12.84Z"/><ellipse class="cls-40_savings-1-99 targetColor" cx="131.8" cy="374.62" rx="13.36" ry="32.74" transform="translate(-244.67 501.04) rotate(-89.18)" style="fill: rgb(122, 181, 172);"/><ellipse class="cls-34_savings-1-99" cx="131.8" cy="374.62" rx="11.38" ry="27.9" transform="translate(-244.67 501.04) rotate(-89.18)"/><path class="cls-40_savings-1-99 targetColor" d="M114.22,373.28l4.47.06c.18-1.18.92-2.2,1.99-2.73l2.96.47c-1.03.49-1.76,1.46-1.94,2.59,0,1.29,1.79,2.19,4.3,2.21,1.98.16,3.92-.56,5.32-1.97,1.99-2.07,4.83-3.13,7.69-2.86,3.68,0,6.47,1.15,7.1,2.82h4.47v1.13l-4.3-.06c-.14.98-.72,1.84-1.58,2.33l-2.91-.49c.84-.47,1.41-1.31,1.53-2.27,0-1.37-2.01-1.94-3.78-1.97-1.94-.1-3.81.7-5.08,2.18-1.88,1.83-4.21,2.73-8.2,2.73-3.51,0-6.82-1.1-7.48-2.96l-4.61-.08.05-1.13Z" style="fill: rgb(122, 181, 172);"/></g><g id="piggy_savings-1-99"><path class="cls-32_savings-1-99" d="M129.18,245.76c32.47,0,58.82,7.77,58.82,17.26-.01.95-.27,1.89-.74,2.72-4.47,8.23-28.77,14.53-58.09,14.53s-53.67-6.29-58.11-14.53c-.47-.83-.72-1.77-.74-2.72,0-9.54,26.37-17.26,58.86-17.26Z"/><path class="cls-30_savings-1-99" d="M129.16,251.21c29.33,0,53.65,6.29,58.09,14.53-4.47,8.23-28.77,14.53-58.09,14.53s-53.67-6.29-58.11-14.53c4.45-8.23,28.77-14.53,58.11-14.53Z"/><path class="cls-40_savings-1-99 targetColor" d="M169.89,373.83l12.11-57.49,45.32,17.3-9.06,48.86c-.12.67-.27,1.33-.47,1.98h0c-3,10.3-13.77,16.21-24.07,13.22l-11.65-3.42c-8.77-2.6-14.07-11.51-12.17-20.46Z" style="fill: rgb(122, 181, 172);"/><path class="cls-31_savings-1-99" d="M169.89,373.83l11.73-55.67,11.89,4.57-11.45,71.56c-8.77-2.6-14.07-11.51-12.17-20.46Z"/><path class="cls-40_savings-1-99 targetColor" d="M302.32,369.24l.1-58.77,47.9,7.54,1.14,49.69v1.99h0c-.79,10.74-10.13,18.8-20.87,18.02l-12.14-.93c-9.16-.69-16.21-8.36-16.13-17.54Z" style="fill: rgb(122, 181, 172);"/><path class="cls-12_savings-1-99" d="M301.75,338.49s.36,18.32.54,30.75c.19,13.76,13.27,16.96,13.27,16.96l-.74-37.16-13.08-10.55Z"/><path class="cls-40_savings-1-99 targetColor" d="M284.22,150.28c70.03,0,127.79,41.97,136.24,96.21-8.45,54.25-66.26,96.22-136.24,96.22s-127.75-41.97-136.2-96.22c8.45-54.17,66.17-96.21,136.2-96.21Z" style="fill: rgb(122, 181, 172);"/><path class="cls-40_savings-1-99 targetColor" d="M395.79,296.86c1.29-1.39,2.46-2.8,3.64-4.26-1.17,1.45-2.38,2.86-3.64,4.26ZM395.79,296.86c1.29-1.39,2.46-2.8,3.64-4.26-1.17,1.45-2.38,2.86-3.64,4.26Z" style="fill: rgb(122, 181, 172);"/><path class="cls-40_savings-1-99 targetColor" d="M421.52,260.25c0,37.29-23.18,70.24-58.61,90.13-1.64.93-3.3,1.83-5,2.68-3.45,1.73-7,3.37-10.66,4.92-5.49,2.27-11.11,4.22-16.83,5.85-15.04,4.29-30.62,6.45-46.26,6.41-75.79,0-137.24-49.2-137.24-110.05-.01-4.61.34-9.21,1.05-13.76.21,1.29.44,2.59.71,3.88-.26-1.29-.49-2.59-.7-3.88,8.45-54.24,66.17-96.21,136.2-96.21s127.81,42.1,136.27,96.27c.71,4.55,1.06,9.15,1.06,13.76Z" style="fill: rgb(122, 181, 172);"/><path class="cls-10_savings-1-99" d="M162.12,253.17c.1.66.22,1.29.32,1.98-.13-.66-.23-1.29-.34-1.98-.71,4.55-1.06,9.15-1.05,13.76,0,38.14,24.24,71.74,61.05,91.47-44.59-18.13-75.09-55.28-75.09-98.1-.01-4.61.34-9.21,1.05-13.76.21,1.29.44,2.59.71,3.88-.26-1.29-.49-2.59-.7-3.88,8.45-54.24,66.17-96.21,136.2-96.21,26.6-.19,52.84,6.19,76.39,18.58-19.8-7.99-40.96-12.04-62.3-11.95-70.08-.05-127.8,41.92-136.24,96.21Z"/><circle class="cls-1_savings-1-99" cx="192.26" cy="285.07" r="61.84"/><path class="cls-40_savings-1-99 targetColor" d="M114.22,221.42c-22.11-18.9-24.96-54.12,0-56.23,24.96-2.11,31.29,21.63,31.29,21.63-6.87,4.47-31.29,34.62-31.29,34.59Z" style="fill: rgb(122, 181, 172);"/><path class="cls-11_savings-1-99" d="M114.22,221.63c-22.11-18.9-24.96-54.12,0-56.23,24.96-2.11,31.29,21.63,31.29,21.63-6.87,4.47-31.29,34.62-31.29,34.59Z"/><path class="cls-40_savings-1-99 targetColor" d="M111.08,217.28c-15.41-13.21-17.36-37.74,0-39.22,17.36-1.48,21.8,15.08,21.8,15.08-4.79,3.06-21.8,24.11-21.8,24.13Z" style="fill: rgb(122, 181, 172);"/><path class="cls-20_savings-1-99" d="M111.08,217.28c-15.41-13.21-17.36-37.74,0-39.22,17.36-1.48,21.8,15.08,21.8,15.08-4.79,3.06-21.8,24.11-21.8,24.13Z"/><path class="cls-16_savings-1-99" d="M147.11,246.78c5.31,34.14,30.15,63.44,65.29,80.43l11.43-13.12,11.94-6.2c-.17.5-.71,22.72.71,27.98,15.14,4.85,30.95,7.26,46.84,7.12,70.04,0,127.79-42.01,136.24-96.22.71,4.55,1.06,9.15,1.06,13.76,0,60.74-61.5,109.99-137.24,109.99s-137.24-49.2-137.24-109.99c-.04-4.6.28-9.2.96-13.75Z"/><path class="cls-14_savings-1-99" d="M364.21,356.24c.07.5-.02,1.01-.25,1.46l-.4-2.78c.36.35.59.82.65,1.32Z"/><path class="cls-13_savings-1-99" d="M368.08,382.24c.06.54-.04,1.09-.31,1.57l-.43-2.96c.41.36.67.86.74,1.4Z"/><path class="cls-40_savings-1-99 targetColor" d="M154.35,185.84c49.43,0,89.5,39.06,89.5,87.29-.01,22.42-8.79,43.94-24.46,59.97-34.92,35.86-92.3,36.63-128.16,1.71-7.61-7.41-13.85-16.09-18.45-25.66-5.22-11.26-7.92-23.53-7.91-35.94.03-48.23,40.1-87.37,89.48-87.37Z" style="fill: rgb(122, 181, 172);"/><path class="cls-19_savings-1-99" d="M243.61,266.11c-8.88-39.1-44.64-68.32-87.39-68.32-49.43,0-89.5,39.09-89.5,87.32,0,2.34.09,4.69.28,7.03-1.4-6.2-2.11-12.53-2.1-18.89,0-48.23,40.14-87.3,89.49-87.3,46.97-.04,85.5,35.23,89.22,80.17Z"/><ellipse class="cls-40_savings-1-99 targetColor" cx="135.57" cy="256.12" rx="6.5" ry="6.55" style="fill: rgb(122, 181, 172);"/><ellipse class="cls-40_savings-1-99 targetColor" cx="93.66" cy="250.67" rx="6.5" ry="6.55" style="fill: rgb(122, 181, 172);"/><ellipse class="cls-15_savings-1-99" cx="135.57" cy="256.12" rx="6.5" ry="6.55"/><ellipse class="cls-22_savings-1-99" cx="93.66" cy="250.67" rx="6.5" ry="6.55"/><path class="cls-40_savings-1-99 targetColor" d="M92.87,267.41c13.58,2.59,22.96,13.52,20.92,24.47-2.03,10.95-14.68,17.75-28.26,15.23-2.7-.5-5.31-1.37-7.77-2.59l6.93-37.55c2.73-.22,5.49-.07,8.18.44Z" style="fill: rgb(122, 181, 172);"/><path class="cls-18_savings-1-99" d="M92.87,267.41c13.58,2.59,22.96,13.52,20.92,24.47-2.03,10.95-14.68,17.75-28.26,15.23-2.7-.5-5.31-1.37-7.77-2.59l6.93-37.55c2.73-.22,5.49-.07,8.18.44Z"/><ellipse class="cls-40_savings-1-99 targetColor" cx="81.65" cy="285.81" rx="19.15" ry="10.12" transform="translate(-214.21 314.48) rotate(-79.59)" style="fill: rgb(122, 181, 172);"/><ellipse class="cls-21_savings-1-99" cx="81.65" cy="285.81" rx="19.15" ry="10.12" transform="translate(-214.21 314.48) rotate(-79.59)"/><path class="cls-17_savings-1-99" d="M85.58,278.45c.71.21.45,3.33-.6,6.99-1.05,3.66-2.47,6.47-3.2,6.23s-.44-3.33.6-6.99c1.04-3.66,2.49-6.43,3.2-6.23Z"/><path class="cls-24_savings-1-99" d="M162.42,331.76c50.2-8.47,57.03,1.4,57.03,1.4-34.91,35.87-92.29,36.65-128.16,1.75-7.63-7.43-13.9-16.15-18.51-25.75l-.09-1.61s39.54,32.68,89.72,24.21Z"/><path class="cls-40_savings-1-99 targetColor" d="M224.38,241.71c22.13-18.89,24.98-54.11,0-56.22-24.98-2.11-31.28,21.63-31.28,21.63,6.87,4.47,31.28,34.62,31.28,34.58Z" style="fill: rgb(122, 181, 172);"/><path class="cls-9_savings-1-99" d="M223.55,241.71c22.11-18.89,24.96-54.11,0-56.22-24.96-2.11-31.29,21.63-31.29,21.63,6.87,4.47,31.29,34.62,31.29,34.58Z"/><path class="cls-40_savings-1-99 targetColor" d="M217.79,234.41c15.41-13.19,17.36-37.73,0-39.2-17.36-1.48-21.8,15.07-21.8,15.07,4.8,3.13,21.8,24.12,21.8,24.13Z" style="fill: rgb(122, 181, 172);"/><path class="cls-25_savings-1-99" d="M217.79,234.41c15.41-13.19,17.36-37.73,0-39.2-17.36-1.48-21.8,15.07-21.8,15.07,4.8,3.13,21.8,24.12,21.8,24.13Z"/><path class="cls-38_savings-1-99" d="M290.3,159.16c28.81-1.63,39.54,2.81,39.54,2.81l18.57,7.39c-4.2-1.3-8.5-2.23-12.86-2.78h0c-17.52-2.5-50.87-2.89-88.12,19.3l-6.37-2.85-6.47-2.86s19.17-18.93,55.71-21.01Z"/><path class="cls-40_savings-1-99 targetColor" d="M290.3,159.16c28.81-1.63,39.54,2.81,39.54,2.81l18.57,7.39c-4.2-1.3-8.5-2.23-12.86-2.78h0l-9-3.02s-45.21-6.29-70.03,8.77l-15.54,10.71-6.36-2.86s19.14-18.93,55.67-21.01Z" style="fill: rgb(122, 181, 172);"/><path class="cls-23_savings-1-99" d="M290.3,159.16c28.81-1.63,39.54,2.81,39.54,2.81l18.57,7.39c-4.2-1.3-8.5-2.23-12.86-2.78h0l-9-3.02s-45.21-6.29-70.03,8.77l-15.54,10.71-6.36-2.86s19.14-18.93,55.67-21.01Z"/><path class="cls-40_savings-1-99 targetColor" d="M235.03,392.8l1.48-58.74,47.72,8.65v49.73c.02.64-.01,1.28-.09,1.92h0c-.99,10.68-10.45,18.53-21.13,17.54h-.13l-12.14-1.22c-9.12-.91-15.97-8.72-15.7-17.88Z" style="fill: rgb(122, 181, 172);"/><path class="cls-40_savings-1-99 targetColor" d="M356.13,379.85l1.29-54.09h0l.1-4.62,47.72-38.32v96.68c.02.65-.02,1.3-.09,1.94h0c-1.04,10.72-10.57,18.57-21.29,17.53l-12.13-1.2c-9.08-.98-15.88-8.78-15.61-17.91Z" style="fill: rgb(122, 181, 172);"/><path class="cls-8_savings-1-99" d="M356.12,379.85l1.29-54.09h0s3.88-2.1,7.69,4.62c3.81,6.72,6.65,67.33,6.65,67.33-9.07-.96-15.89-8.73-15.64-17.85Z"/><path class="cls-4_savings-1-99" d="M235.08,392.83l1.41-56.97,12.51,2.3,1.73,72.5c-9.08-.94-15.9-8.72-15.65-17.84Z"/><path class="cls-40_savings-1-99 targetColor" d="M433.12,244.83c-2.24-.07-4.31-1.25-5.49-3.16-2.9-4.3-3.29-11.2-1.29-16.65-3-1.77-6.84-3.39-9.33-2.01-2.87,1.58-3.52,6.81-3.53,8.7,0,1.43-1.16,2.59-2.59,2.59h0c-1.43,0-2.59-1.16-2.59-2.59,0-1,.17-9.87,6.2-13.22,3.72-2.06,8.53-1.4,14.32,1.99h0c3.35-4.14,8.51-5.18,14.14-2.96,1.34.49,2.04,1.98,1.55,3.32-.49,1.34-1.98,2.04-3.32,1.55h-.16c-3.42-1.37-6.01-1.01-7.91,1.1,7.61,6.09,7.61,12.07,7.17,14.55-.39,3.22-2.69,5.89-5.83,6.75-.44.06-.89.07-1.33.04ZM430.71,228.19c-.92,3.81-.4,8.2,1.22,10.56.45.69.92.97,1.39.88,1.04-.46,1.74-1.46,1.81-2.59.18-1.13.32-4.6-4.41-8.86Z" style="fill: rgb(122, 181, 172);"/></g><g id="stair_savings-1-99"><path class="cls-6_savings-1-99" d="M360.21,331.55l-.38-2.52-3.51-23.63-.34-2.28-3.47-23.89-.3-1.98-3.53-24.24c.06-.26.06-.53,0-.79-.03-.28-.12-.56-.26-.8l-3.59-24.6-.17-1.13-3.7-25.36v-.14l-1.7-11.76c-.2-1.22-1.35-2.05-2.57-1.86,0,0-.01,0-.02,0-.13.02-.25.05-.38.09-1.42.37-2.37,1.72-2.24,3.18l1.29,9.23-22.76,5.8-1.71-11.65c-.2-1.23-1.35-2.06-2.58-1.87,0,0,0,0,0,0l-.39.1c-1.42.37-2.36,1.72-2.23,3.19l1.98,13.52h0l.17,1.14h0l3.7,25.39,18.89,129.12c5.72-1.6,11.34-3.53,16.83-5.79l-11.81,3.02-3.08-21.14,22.77-5.8,2.76,18.92c1.7-.85,3.35-1.75,5-2.68l-2.69-18.8ZM313.45,209.85l22.79-5.8,3.07,21.07-22.79,5.8-3.07-21.07ZM317.24,235.88l22.77-5.81,3.08,21.05-22.77,5.79-3.08-21.03ZM321.03,261.88l22.79-5.79,3.06,21.05-22.83,5.8-3.02-21.07ZM324.84,287.92l22.77-5.81,3.07,21.05-22.84,5.8-3-21.04ZM331.7,334.97l-3.08-21.04,22.79-5.8,3.07,21.05-22.77,5.79Z"/><line class="cls-41_savings-1-99" x1="308.66" y1="194.01" x2="371.8" y2="415.47"/><line class="cls-41_savings-1-99" x1="336.3" y1="189.21" x2="399.43" y2="410.67"/><line class="cls-41_savings-1-99" x1="312.62" y1="208.16" x2="339.66" y2="201"/><line class="cls-41_savings-1-99" x1="320.13" y1="234.24" x2="347.17" y2="227.07"/><line class="cls-41_savings-1-99" x1="327.64" y1="260.3" x2="354.68" y2="253.14"/><line class="cls-41_savings-1-99" x1="335.15" y1="286.38" x2="362.19" y2="279.22"/><line class="cls-41_savings-1-99" x1="342.65" y1="312.44" x2="369.69" y2="305.28"/><line class="cls-41_savings-1-99" x1="350.16" y1="338.51" x2="377.2" y2="331.35"/><line class="cls-41_savings-1-99" x1="357.67" y1="364.59" x2="384.71" y2="357.42"/><line class="cls-41_savings-1-99" x1="365.18" y1="390.65" x2="392.22" y2="383.49"/></g><g id="character_savings-1-99"><path class="cls-7_savings-1-99" d="M344.89,226.79l-.18-1.14c.09.18.14.37.17.57.02.19.03.38.01.57Z"/><circle class="cls-40_savings-1-99 targetColor" cx="292.54" cy="137.35" r="27.91" transform="translate(69.72 371.44) rotate(-71.56)" style="fill: rgb(122, 181, 172);"/><circle class="cls-5_savings-1-99" cx="292.52" cy="137.35" r="23.8"/><path class="cls-3_savings-1-99" d="M293.6,147.53c2.43,2.03,5.16,3.66,8.1,4.83,4.07,1.4,11.83,3.38,11.83,3.38l2.8-3.78-22.74-4.43Z"/><path class="cls-40_savings-1-99 targetColor" d="M281.41,147.62l2.41-2.96c-1.58-1.29-2.77-2.99-3.44-4.92l2.29-1.4c.59,1.83,1.7,3.44,3.19,4.66,2.1,1.7,4.47,1.63,5.83,0,1.36-1.63.97-3.53-.48-6.19-2.05-3.6-2.8-6.47-.74-9,2.06-2.52,5.18-2.87,8.26-1.13l2.38-2.99,1.83,1.48-2.28,2.82c1.32,1.1,2.35,2.52,2.99,4.12l-2.32,1.39c-.58-1.57-1.58-2.95-2.89-3.99-2.27-1.84-4.21-1.17-5.18,0-1.23,1.53-.76,3.17.93,6.29,2.02,3.68,2.3,6.47.19,9.06-2.14,2.58-5.88,3.14-8.67,1.29l-2.47,3.06-1.83-1.59Z" style="fill: rgb(122, 181, 172);"/><path class="cls-35_savings-1-99" d="M302.07,146.77c-.93-1.21-1.73-2.51-2.38-3.88-.63-1.61-.78,1.41-.41,2.32.36.91-5.18-3.88-5.46-3s2.59,3,2.59,3c0,0-2.96-2.08-3.51-1.77s2.59,2.82,2.59,2.82c0,0-3.28-1.73-3.28-1.41.93.95,1.95,1.82,3.04,2.59,0,0-1.86-.54-2.14-.54s-.18.65,2.05,1.41l5.7,1.98,1.22-3.51Z"/><path class="cls-35_savings-1-99" d="M327.23,201.52c.06.56-.13,1.12-.52,1.53-.21.14-.44.23-.69.27-.64.13-1.3.17-1.96.13-1.23-.09-2.45-.27-3.65-.52l-2.08-.4c-.26-.02-.5-.14-.67-.34-.13-.27-.08-.58.12-.8.34-.4.79-.7,1.29-.87,1.24-.51,2.52-.92,3.82-1.22.22-.03.42-.11.6-.25.27-.22.32-.61.49-.91.36-.53,1.02-.78,1.64-.63.6.12,1.45.52,1.59,1.18.11.94.12,1.88.01,2.82Z"/><path class="cls-37_savings-1-99" d="M320.55,199.55c.43-.1.87.02,1.19.32.35.5-.09,1.29.31,1.76.26.2.58.3.91.27h2.29c.61.02,1.22-.02,1.83-.14.14-.04.29-.04.43,0,.21.05.36.24.38.45.03.21,0,.42-.09.61-.14.42-.35.81-.62,1.15-.08.11-.17.19-.28.26-.13.03-.27.03-.4,0h-4.07c-.93-.06-1.88-.21-2.81-.28-1.36,0-2.71-.23-3.99-.69-.33-.12-.6-.36-.75-.69-.09-.3-.03-.61.17-.85.18-.24.41-.44.67-.58.74-.47,1.55-.81,2.4-1.04.8-.24,1.62-.43,2.45-.56Z"/><path class="cls-35_savings-1-99" d="M348.8,224.15v.16c-.08,1.83-2.49,1.86-3.79,1.8-1.23-.08-2.45-.25-3.65-.52l-2.07-.4c-.27,0-.52-.13-.69-.34-.12-.27-.07-.57.13-.79.34-.4.79-.71,1.29-.88,1.13-.45,2.27-.76,3.42-1.11s.17-1.72,0-2.46c-.05-.15-.05-.32,0-.47.12-.16.29-.27.48-.32.6-.2,1.22-.31,1.85-.32.13-.02.26,0,.38.06.1.08.17.18.21.3l1.98,4.22c.22.33.38.69.47,1.07Z"/><path class="cls-36_savings-1-99" d="M347.92,170.56s1.48,8.31-1.57,14.54c-1.6,3.35-3.39,6.61-5.36,9.76,0,0,6.34,6.85,6.34,15.54-.11,3.02-.06,6.05.17,9.06l-3.81,1.93-9.52-26.49s-.57-3.77,0-5.04,5.46-15.68,5.46-15.68l8.27-3.63Z"/><path class="cls-35_savings-1-99" d="M332.83,130.66c-.14.5-.33.97-.58,1.42-.63.53-.7,1.47-.17,2.1.21.25.5.42.83.49.37.13.75.24,1.13.34.25.03.48.12.69.26.21.19.33.45.35.73,0,.73-.14,1.45-.43,2.12-.3.68-.3,1.45,0,2.12.84,1.39,2.33.34,3.17-.39.49-.46.88-1,1.17-1.61.99-1.92,1.4-4.09,1.18-6.24-.12-1.38-.56-2.71-1.29-3.88-.58-.91-1.84-2.4-3.07-1.71-.61.35-.88,1.1-1.48,1.46s-1.02.35-1.29.79-.1,1.11-.17,1.61c.01.13,0,.26-.03.39Z"/><path class="cls-37_savings-1-99" d="M328.22,170.95c-3.34.57-6.63,1.35-9.87,2.34-.96.2-1.85.65-2.59,1.29-.48.61-.81,1.33-.97,2.1-.43,1.38-.56,2.84-.39,4.27.28,1.29,8.42,16.25,9.06,17.26.08.14.19.27.32.38.17.1.36.15.56.14.92.1,2.3-.76,3.06-.23-.36-2.59-.21-2.77-.63-4.73s-1.04-3.88-1.39-5.83c-.12-.97-.32-1.94-.57-2.89-.45-1.38-1.31-2.6-2.46-3.48l8.51,1.58c.96.19,1.93.34,2.9.43,1.46.12,2.93.07,4.38-.14,2.99-.47,5.3-2.98,6.65-5.53.75-1.38,1.25-2.89,1.48-4.45.09-.73.09-1.46,0-2.19-.12-.65-.28-1.29-.47-1.93-1.48,1.06-3.88.48-5.61.49-2.42.01-4.84.14-7.25.4-1.55.23-3.15.45-4.73.71Z"/><path class="cls-39_savings-1-99" d="M337.59,138.47c-4.13-.88-8.18,1.75-9.06,5.88-.15.74-.2,1.51-.13,2.27.14,2.59,1.41,4.87,2.11,7.32.41,1.62.7,3.26.87,4.92.44,3.44.79,7.24-1.19,10.09-.67.71-1.16,1.57-1.44,2.51-.38,2.82,3.48,3.61,5.44,4.13,3.2.96,6.48,1.59,9.8,1.9,1.22.09,2.44.09,3.65,0,.26-.01.51-.07.75-.16.28-.14.52-.36.67-.63,1.14-1.73.45-4.03.47-6.1,0-1.41.38-2.78.44-4.18-.05-1.47-.3-2.92-.73-4.32-.25-1.2-.14-2.49-.38-3.72-.67-3.19-1.57-6.32-2.71-9.37-.62-1.92-1.41-3.79-2.37-5.57-1.06-2.08-2.84-3.72-5-4.61-.39-.15-.79-.27-1.2-.35Z"/><path class="cls-39_savings-1-99" d="M336.01,146.77c-4.76,4.17-10.76,6.64-17.08,7.04-6.54.3-13.06-.91-19.06-3.53l2.19-3.51s13.4,1.14,15.68.56c2.72-.69,14.84-8.18,14.84-8.18,0,0,6.5-.63,3.43,7.63Z"/><path class="cls-37_savings-1-99" d="M341.89,221.9c.43-.1.87.02,1.19.32.35.5-.1,1.29.31,1.76.26.2.58.3.91.27h2.32c.61.03,1.23-.02,1.83-.14.14-.04.29-.04.43,0,.21.05.36.24.38.45.03.21,0,.42-.09.61-.14.42-.35.81-.62,1.17-.08.1-.17.19-.28.25-.13.05-.26.08-.4.08-1.36,0-2.72,0-4.07-.06-.95,0-1.88-.21-2.81-.28-1.36.01-2.71-.22-3.99-.69-.33-.12-.6-.36-.75-.69-.09-.29-.03-.61.17-.84.18-.24.41-.44.67-.6.74-.47,1.55-.81,2.4-1.04.79-.25,1.6-.44,2.42-.57Z"/><path class="cls-37_savings-1-99" d="M335.02,124.02c-.49.41-.82.82-.75,1.11l1.75,2.73,1.48-.84-.76,1.45,1.29,1.64,1.01-1s-3.24,14.38.22,22.52c3.46,8.13,3.46,7.04,3.46,7.04,0,0,4.58-2.93,7.33-1.58,2.74,1.35,4.21-3.2,4.21-3.2,0,0-4.16-4.7-4.21-14.24.08-4.65-.99-9.24-3.11-13.37-2.12-3.81-6.93-5.18-10.74-3.05,0,0,0,0-.01,0-.41.22-.8.48-1.15.78Z"/></g></svg>